<svg width="39" height="39" viewBox="0 0 39 39" fill="none" xmlns="http://www.w3.org/2000/svg">
<path d="M19.7998 0.800049C9.3118 0.800049 0.799805 9.31205 0.799805 19.8C0.799805 30.288 9.3118 38.8 19.7998 38.8C30.2878 38.8 38.7998 30.288 38.7998 19.8C38.7998 9.31205 30.2878 0.800049 19.7998 0.800049ZM19.7998 21.7C18.7548 21.7 17.8998 20.845 17.8998 19.8V12.2C17.8998 11.155 18.7548 10.3 19.7998 10.3C20.8448 10.3 21.6998 11.155 21.6998 12.2V19.8C21.6998 20.845 20.8448 21.7 19.7998 21.7ZM21.6998 29.3H17.8998V25.5H21.6998V29.3Z" fill="#C44E52"/>
</svg>
