<svg width="47" height="43" viewBox="0 0 47 43" fill="none" xmlns="http://www.w3.org/2000/svg">
<path fill-rule="evenodd" clip-rule="evenodd" d="M5.14062 2.6875C4.55632 2.6875 3.99595 2.89986 3.58278 3.27786C3.16961 3.65587 2.9375 4.16855 2.9375 4.70313C2.9375 5.2377 3.16961 5.75038 3.58278 6.12839C3.99595 6.50639 4.55632 6.71875 5.14062 6.71875H30.1094C30.6937 6.71875 31.2541 6.50639 31.6672 6.12839C32.0804 5.75038 32.3125 5.2377 32.3125 4.70313C32.3125 4.16855 32.0804 3.65587 31.6672 3.27786C31.2541 2.89986 30.6937 2.6875 30.1094 2.6875H5.14062ZM2.9375 12.7656C2.9375 12.231 3.16961 11.7184 3.58278 11.3404C3.99595 10.9624 4.55632 10.75 5.14062 10.75H20.5625C21.1468 10.75 21.7072 10.9624 22.1203 11.3404C22.5335 11.7184 22.7656 12.231 22.7656 12.7656C22.7656 13.3002 22.5335 13.8129 22.1203 14.1909C21.7072 14.5689 21.1468 14.7813 20.5625 14.7813H5.14062C4.55632 14.7813 3.99595 14.5689 3.58278 14.1909C3.16961 13.8129 2.9375 13.3002 2.9375 12.7656ZM29.375 33.5938C31.3227 33.5938 33.1906 32.8859 34.5678 31.6259C35.945 30.3659 36.7188 28.6569 36.7188 26.875C36.7188 25.0931 35.945 23.3841 34.5678 22.1241C33.1906 20.8641 31.3227 20.1563 29.375 20.1563C27.4273 20.1563 25.5594 20.8641 24.1822 22.1241C22.805 23.3841 22.0313 25.0931 22.0312 26.875C22.0313 28.6569 22.805 30.3659 24.1822 31.6259C25.5594 32.8859 27.4273 33.5938 29.375 33.5938ZM29.375 37.625C31.8249 37.625 34.0956 36.9397 35.9785 35.7679L40.3025 39.7213C40.5042 39.9193 40.7474 40.0781 41.0177 40.1883C41.2879 40.2985 41.5797 40.3577 41.8755 40.3625C42.1713 40.3672 42.4651 40.3175 42.7394 40.2161C43.0138 40.1147 43.263 39.9638 43.4722 39.7724C43.6814 39.581 43.8463 39.353 43.9571 39.102C44.0679 38.8511 44.1223 38.5822 44.1171 38.3116C44.1119 38.041 44.0471 37.7741 43.9267 37.5268C43.8063 37.2796 43.6327 37.057 43.4162 36.8725L39.0952 32.9165C40.5695 30.9313 41.2753 28.5518 41.1001 26.1571C40.9249 23.7624 39.8788 21.4901 38.1285 19.7024C36.3781 17.9147 34.0242 16.7143 31.4417 16.2924C28.8592 15.8705 26.1966 16.2514 23.8782 17.3745C21.5598 18.4975 19.7188 20.2981 18.6486 22.4894C17.5784 24.6807 17.3404 27.1366 17.9727 29.4659C18.605 31.7953 20.0711 33.864 22.1375 35.3427C24.2039 36.8213 26.7516 37.6247 29.375 37.625ZM5.14062 18.8125C4.55632 18.8125 3.99595 19.0249 3.58278 19.4029C3.16961 19.7809 2.9375 20.2935 2.9375 20.8281C2.9375 21.3627 3.16961 21.8754 3.58278 22.2534C3.99595 22.6314 4.55632 22.8438 5.14062 22.8438H11.75C12.3343 22.8438 12.8947 22.6314 13.3078 22.2534C13.721 21.8754 13.9531 21.3627 13.9531 20.8281C13.9531 20.2935 13.721 19.7809 13.3078 19.4029C12.8947 19.0249 12.3343 18.8125 11.75 18.8125H5.14062Z" fill="#252E49"/>
</svg>
