<svg width="40" height="40" viewBox="0 0 40 40" fill="none" xmlns="http://www.w3.org/2000/svg">
<mask id="mask0_279_1160" style="mask-type:luminance" maskUnits="userSpaceOnUse" x="0" y="0" width="40" height="40">
<path d="M20 38.8003C22.4956 38.8034 24.9671 38.3159 27.2727 37.3659C29.5783 36.4159 31.6725 35.022 33.4349 33.2645C35.2017 31.5113 36.6029 29.4282 37.558 27.1347C38.513 24.8412 39.0031 22.3826 39 19.9002C39.0031 17.4177 38.513 14.9591 37.558 12.6657C36.6029 10.3722 35.2017 8.28902 33.4349 6.53587C31.6725 4.77831 29.5783 3.38448 27.2727 2.43446C24.9671 1.48444 22.4956 0.996953 20 1.00001C17.5044 0.996953 15.0329 1.48444 12.7273 2.43446C10.4217 3.38448 8.32752 4.77831 6.56511 6.53587C4.79826 8.28902 3.39707 10.3722 2.44203 12.6657C1.48699 14.9591 0.996937 17.4177 1.00001 19.9002C0.996937 22.3826 1.48699 24.8412 2.44203 27.1347C3.39707 29.4282 4.79826 31.5113 6.56511 33.2645C8.32752 35.022 10.4217 36.4159 12.7273 37.3659C15.0329 38.3159 17.5044 38.8034 20 38.8003Z" fill="white" stroke="white" stroke-width="2" stroke-linejoin="round"/>
<path d="M12.3999 19.9L18.0999 25.5701L29.4999 14.23" stroke="black" stroke-width="2" stroke-linecap="round" stroke-linejoin="round"/>
</mask>
<g mask="url(#mask0_279_1160)">
<path d="M-2.7998 -2.78003H42.8002V42.5804H-2.7998V-2.78003Z" fill="#45CB7B"/>
</g>
</svg>
