<svg width="18" height="16" viewBox="0 0 18 16" fill="none" xmlns="http://www.w3.org/2000/svg">
<path d="M7.62502 14.6668C7.62502 14.9984 7.76989 15.3163 8.02775 15.5507C8.28561 15.7851 8.63535 15.9168 9.00002 15.9168C9.36469 15.9168 9.71443 15.7851 9.97229 15.5507C10.2302 15.3163 10.375 14.9984 10.375 14.6668V9.25016H16.3334C16.698 9.25016 17.0478 9.11847 17.3056 8.88405C17.5635 8.64963 17.7084 8.33168 17.7084 8.00016C17.7084 7.66864 17.5635 7.3507 17.3056 7.11628C17.0478 6.88186 16.698 6.75016 16.3334 6.75016H10.375V1.3335C10.375 1.00198 10.2302 0.684033 9.97229 0.449613C9.71443 0.215192 9.36469 0.0834961 9.00002 0.0834961C8.63535 0.0834961 8.28561 0.215192 8.02775 0.449613C7.76989 0.684033 7.62502 1.00198 7.62502 1.3335V6.75016H1.66669C1.30201 6.75016 0.952278 6.88186 0.694415 7.11628C0.436553 7.3507 0.291687 7.66864 0.291687 8.00016C0.291687 8.33168 0.436553 8.64963 0.694415 8.88405C0.952278 9.11847 1.30201 9.25016 1.66669 9.25016H7.62502V14.6668Z" fill="#252E49"/>
</svg>
