<svg width="23" height="25" viewBox="0 0 23 25" fill="none" xmlns="http://www.w3.org/2000/svg">
<path d="M21.437 8.72699L18.2829 10.4736C18.9528 11.5425 19.3157 12.7939 19.3157 14.1235C19.3157 18.1643 15.7987 21.4232 11.5 21.4232C7.20128 21.4232 3.6843 18.1384 3.6843 14.1235C3.6843 10.1088 7.20128 6.82374 11.5 6.82374V10.1346L20.0692 5.12928L11.5 0.0976562V3.40854C5.16411 3.40854 0 8.23138 0 14.1494C0 20.0411 5.16373 24.8643 11.5 24.8643C17.8359 24.8643 23 20.0415 23 14.1235C22.9998 12.1683 22.4137 10.3173 21.4368 8.72694L21.437 8.72699Z" fill="#202C4D"/>
</svg>
