<svg width="19" height="22" viewBox="0 0 19 22" fill="none" xmlns="http://www.w3.org/2000/svg">
<mask id="mask0_70_125" style="mask-type:luminance" maskUnits="userSpaceOnUse" x="0" y="0" width="19" height="22">
<path d="M0 0H18.04V21.9669H0V0Z" fill="white"/>
</mask>
<g mask="url(#mask0_70_125)">
<path d="M14.9607 13.653C14.1093 12.9682 13.112 12.462 12.0659 12.105C13.5011 10.9144 14.4256 8.91976 14.4256 6.62789C14.4256 2.96646 11.993 0.0195312 9.02504 0.0195312C6.05733 0.0195312 3.6245 2.99618 3.6245 6.62789C3.6245 8.89004 4.57325 10.8844 5.98423 12.105C2.74885 13.2062 0 15.9745 0 19.6657V21.8984H18.0503V19.6657C18.0503 17.4036 16.9313 15.2006 14.9607 13.653ZM9.02504 2.28167C10.9956 2.28167 12.6012 4.24629 12.6012 6.65762C12.6012 9.06866 10.9956 11.0333 9.02504 11.0333C7.05467 11.0333 5.44912 9.06866 5.44912 6.65762C5.44912 4.24629 7.05467 2.28167 9.02504 2.28167ZM1.8244 19.6657C1.8244 16.451 5.40054 13.8313 9.02504 13.8313C12.6498 13.8313 16.2257 16.451 16.2257 19.6657H1.8244Z" fill="#FCF4E7"/>
</g>
</svg>
