<svg width="28" height="37" viewBox="0 0 28 37" fill="none" xmlns="http://www.w3.org/2000/svg">
<mask id="mask0_500_13" style="mask-type:luminance" maskUnits="userSpaceOnUse" x="0" y="0" width="28" height="37">
<mask id="path-1-inside-1_500_13" fill="white">
<path d="M0 0H27.968V36.3148H0V0Z"/>
</mask>
<path d="M0 0H27.968V36.3148H0V0Z" fill="white"/>
<path d="M0 0V-219H-219V0H0ZM27.968 0H246.968V-219H27.968V0ZM27.968 36.3148V255.315H246.968V36.3148H27.968ZM0 36.3148H-219V255.315H0V36.3148ZM0 219H27.968V-219H0V219ZM-191.032 0V36.3148H246.968V0H-191.032ZM27.968 -182.685H0V255.315H27.968V-182.685ZM219 36.3148V0H-219V36.3148H219Z" fill="white" mask="url(#path-1-inside-1_500_13)"/>
</mask>
<g mask="url(#mask0_500_13)">
<mask id="path-3-inside-2_500_13" fill="white">
<path d="M19.7889 36.2866H12.1786C12.1141 36.2866 12.0503 36.2826 11.9862 36.2754C11.9225 36.2683 11.8591 36.2575 11.7962 36.2436C11.7333 36.2293 11.6711 36.2118 11.6098 36.1903C11.5484 36.1693 11.4882 36.1451 11.4289 36.1173C11.3695 36.0895 11.3117 36.0582 11.2551 36.0241C11.1985 35.9897 11.1435 35.9525 11.0904 35.9122C11.037 35.8718 10.9855 35.8288 10.9357 35.7827C10.8862 35.7366 10.8387 35.6878 10.7936 35.6367C10.748 35.5852 10.7049 35.5314 10.6641 35.4754C10.6237 35.4195 10.5854 35.3612 10.5497 35.3008C10.5141 35.2403 10.4812 35.178 10.4508 35.1144C10.4207 35.0504 10.393 34.9845 10.3684 34.9178C10.3439 34.8506 10.3221 34.7825 10.3035 34.7131C10.2849 34.6432 10.2691 34.5733 10.2568 34.5021C10.2441 34.4309 10.2346 34.3592 10.2283 34.2867C10.222 34.2146 10.2188 34.142 10.2184 34.0694V31.2664C10.2184 31.2023 10.2129 31.1392 10.2018 31.0765C10.1907 31.0137 10.1745 30.9533 10.1531 30.8942C10.1313 30.835 10.1048 30.779 10.0735 30.7262C10.0423 30.6729 10.0066 30.6236 9.96667 30.5788C9.92669 30.5336 9.88314 30.4933 9.83644 30.4579C9.78933 30.422 9.73985 30.392 9.6876 30.3678C9.63575 30.3432 9.58192 30.3248 9.5265 30.3123C9.47108 30.2998 9.41527 30.2935 9.35906 30.2935H5.61844C5.55431 30.2935 5.49058 30.2899 5.42646 30.2827C5.36273 30.2756 5.29939 30.2648 5.23646 30.2505C5.17352 30.2362 5.11137 30.2187 5.05002 30.1976C4.98867 30.1766 4.9281 30.152 4.86912 30.1242C4.80975 30.0964 4.75196 30.0655 4.69535 30.031C4.63875 29.997 4.58373 29.9593 4.53029 29.919C4.47725 29.8787 4.42579 29.8357 4.37592 29.7896C4.32644 29.7435 4.27894 29.6951 4.23342 29.6436C4.18829 29.5921 4.14514 29.5383 4.10437 29.4823C4.0636 29.4263 4.0256 29.3681 3.98998 29.3076C3.95435 29.2476 3.9211 29.1853 3.89102 29.1213C3.86054 29.0572 3.83323 28.9918 3.80869 28.9247C3.78414 28.8575 3.76237 28.7894 3.74377 28.72C3.72517 28.6505 3.70933 28.5802 3.69667 28.509C3.68439 28.4378 3.67489 28.3661 3.66856 28.294C3.66223 28.2214 3.65867 28.1493 3.65867 28.0768V23.3006C3.65867 23.2366 3.65312 23.1734 3.64244 23.1107C3.63135 23.0484 3.61512 22.9875 3.59375 22.9284C3.57198 22.8693 3.54585 22.8133 3.51458 22.7604C3.48331 22.7071 3.44769 22.6579 3.4081 22.6126C3.36812 22.5674 3.32498 22.5271 3.27787 22.4917C3.23117 22.4558 3.18169 22.4258 3.12983 22.4012C3.07758 22.3766 3.02375 22.3582 2.96873 22.3457C2.91331 22.3327 2.8575 22.3264 2.80129 22.3264H2.00685C1.92492 22.3264 1.84377 22.3206 1.76262 22.3089C1.68187 22.2973 1.60152 22.2803 1.52235 22.2574C1.44319 22.2346 1.366 22.2059 1.29 22.1723C1.214 22.1383 1.13998 22.0993 1.06833 22.055C0.996686 22.0106 0.927811 21.9618 0.861311 21.9076C0.795207 21.8534 0.732269 21.7952 0.672499 21.732C0.612728 21.6693 0.556519 21.6021 0.504269 21.5313C0.451624 21.4606 0.403332 21.3862 0.359394 21.3087C0.315061 21.2308 0.275478 21.1502 0.240249 21.0669C0.204624 20.9835 0.174144 20.898 0.148415 20.8106C0.122686 20.7229 0.101707 20.6337 0.0854777 20.5432C0.0696444 20.4523 0.0585611 20.3609 0.0526236 20.2691C0.0466861 20.1768 0.0458944 20.0846 0.0502486 19.9923C0.0546027 19.9 0.0637068 19.8082 0.0783527 19.7173C0.0926026 19.6264 0.111999 19.5368 0.136144 19.4485C0.160686 19.3603 0.189582 19.2743 0.223624 19.1901C1.29831 16.5201 2.11808 14.3884 2.88481 11.2588C3.72952 7.81166 5.21231 5.07533 7.29321 3.12555C9.14175 1.3948 11.4309 0.350709 13.9127 0.107043C16.4975 -0.147374 19.2117 0.481949 21.5571 1.87855C23.9621 3.31099 25.8724 5.49727 26.9396 8.03696C28.0274 10.6255 28.2486 13.5804 27.5801 16.5675C26.8244 19.9359 24.9842 23.3494 22.1025 26.712C22.0578 26.7626 22.019 26.8186 21.9857 26.8799C20.6617 29.3224 21.048 31.6829 21.605 33.2336C21.6354 33.3174 21.6608 33.4029 21.6817 33.4907C21.7027 33.5781 21.719 33.6663 21.73 33.7563C21.7415 33.8459 21.7479 33.936 21.7494 34.0264C21.751 34.1169 21.7475 34.2074 21.7395 34.2974C21.7312 34.3875 21.7182 34.4766 21.7004 34.5648C21.6821 34.6531 21.6596 34.74 21.6327 34.8251C21.6054 34.9102 21.5733 34.993 21.5373 35.0737C21.5009 35.1547 21.4605 35.2327 21.4157 35.3075C21.371 35.3827 21.3223 35.4544 21.2701 35.5229C21.2174 35.5915 21.1616 35.656 21.1022 35.7164C21.0429 35.7769 20.9803 35.8333 20.9146 35.8853C20.8493 35.9372 20.7812 35.9843 20.7104 36.0268C20.6399 36.0694 20.5671 36.107 20.4923 36.1393C20.4175 36.172 20.3415 36.1988 20.2639 36.2208C20.1863 36.2427 20.1075 36.2593 20.028 36.27C19.9488 36.2812 19.8688 36.2866 19.7889 36.2866ZM15.0543 1.29447C14.706 1.29447 14.3572 1.31149 14.0085 1.34598C9.08871 1.82883 5.41854 5.56267 3.94406 11.5907C3.15794 14.8014 2.28433 17.071 1.22389 19.7056C1.20925 19.7428 1.19658 19.7804 1.18589 19.819C1.17521 19.8579 1.1665 19.8973 1.16056 19.9372C1.15423 19.9771 1.14987 20.0174 1.14829 20.0577C1.14631 20.0985 1.14671 20.1388 1.14908 20.1791C1.15185 20.2194 1.1566 20.2597 1.16373 20.2996C1.17085 20.3394 1.17996 20.3784 1.19104 20.4169C1.20252 20.4555 1.21598 20.4926 1.23142 20.5294C1.24685 20.5661 1.26427 20.6015 1.28367 20.6355C1.30306 20.6696 1.32444 20.7023 1.34739 20.7332C1.37035 20.7641 1.39489 20.7936 1.42102 20.8214C1.44754 20.8487 1.47525 20.8747 1.50414 20.8984C1.53304 20.9222 1.56352 20.9437 1.59479 20.9629C1.62646 20.9822 1.65892 20.9997 1.69217 21.0145C1.72542 21.0292 1.75946 21.0418 1.79429 21.0516C1.82912 21.0619 1.86396 21.0695 1.89958 21.0745C1.93521 21.0794 1.97083 21.0821 2.00685 21.0821H2.80129C2.86542 21.0821 2.92914 21.0861 2.99287 21.0933C3.057 21.1005 3.12033 21.1112 3.18287 21.1255C3.24581 21.1399 3.30796 21.1573 3.36931 21.1788C3.43067 21.1999 3.49083 21.2245 3.55021 21.2523C3.60958 21.2801 3.66737 21.3114 3.72398 21.3455C3.78019 21.38 3.83521 21.4171 3.88864 21.4574C3.94169 21.4978 3.99314 21.5412 4.04262 21.5873C4.0921 21.6335 4.1396 21.6823 4.18512 21.7334C4.23025 21.7849 4.27339 21.8386 4.31377 21.8946C4.35454 21.9506 4.39254 22.0093 4.42817 22.0693C4.46379 22.1298 4.49664 22.192 4.52712 22.2561C4.55721 22.3201 4.58452 22.3855 4.60906 22.4527C4.6336 22.5195 4.65537 22.588 4.67398 22.6574C4.69258 22.7268 4.70802 22.7972 4.72069 22.8684C4.73296 22.9396 4.74246 23.0113 4.74879 23.0834C4.75512 23.1555 4.75829 23.2281 4.75829 23.3006V28.0781C4.75829 28.1421 4.76423 28.2053 4.77531 28.2676C4.78639 28.3303 4.80262 28.3907 4.82439 28.4499C4.84617 28.5085 4.87269 28.5645 4.90396 28.6178C4.93562 28.6707 4.97125 28.72 5.01123 28.7648C5.05121 28.81 5.09435 28.8503 5.14146 28.8857C5.18817 28.9211 5.23764 28.9506 5.28989 28.9753C5.34214 28.9995 5.39558 29.0183 5.451 29.0304C5.50642 29.0429 5.56223 29.0492 5.61844 29.0492H9.35906C9.42319 29.0496 9.48692 29.0532 9.55104 29.0604C9.61477 29.0675 9.6781 29.0783 9.74104 29.0922C9.80398 29.1065 9.86612 29.1244 9.92748 29.1455C9.98883 29.1665 10.049 29.1907 10.1084 29.2189C10.1674 29.2467 10.2255 29.2776 10.2821 29.3117C10.3387 29.3461 10.3934 29.3833 10.4468 29.4236C10.5002 29.464 10.5517 29.5074 10.6012 29.5531C10.6507 29.5992 10.6982 29.648 10.7437 29.6996C10.7888 29.7506 10.832 29.8044 10.8727 29.8604C10.9135 29.9168 10.9515 29.975 10.9871 30.035C11.0227 30.0955 11.056 30.1578 11.0861 30.2218C11.1162 30.2859 11.1439 30.3513 11.1684 30.4185C11.193 30.4852 11.2147 30.5537 11.2333 30.6232C11.2519 30.6926 11.2674 30.7629 11.28 30.8341C11.2927 30.9053 11.3022 30.977 11.3085 31.0491C11.3149 31.1212 11.318 31.1938 11.318 31.2664V34.0694C11.318 34.1335 11.3236 34.1966 11.3347 34.2593C11.3457 34.3221 11.3624 34.383 11.3837 34.4417C11.4055 34.5008 11.432 34.5568 11.4633 34.6101C11.495 34.6629 11.5306 34.7122 11.5706 34.7574C11.6106 34.8022 11.6537 34.8425 11.7008 34.8784C11.7479 34.9138 11.7974 34.9438 11.8492 34.968C11.9015 34.9926 11.9553 35.011 12.0107 35.0235C12.0662 35.036 12.122 35.0423 12.1786 35.0423H19.7889C19.8241 35.0423 19.8589 35.0401 19.8938 35.0351C19.9286 35.0302 19.963 35.023 19.9971 35.0132C20.0311 35.0038 20.0644 34.9917 20.0972 34.9778C20.1301 34.9635 20.1617 34.9469 20.193 34.9281C20.2239 34.9097 20.2536 34.8887 20.2825 34.8663C20.3114 34.8434 20.3387 34.8183 20.3648 34.7919C20.3905 34.7655 20.4151 34.7373 20.438 34.7073C20.4614 34.6773 20.4824 34.6455 20.5022 34.6128C20.5216 34.5796 20.5394 34.5456 20.5552 34.5102C20.5714 34.4748 20.5853 34.4385 20.5972 34.4009C20.609 34.3637 20.6189 34.3256 20.6269 34.2871C20.6348 34.2482 20.6403 34.2092 20.6439 34.1698C20.6478 34.1303 20.649 34.0905 20.6486 34.0511C20.6478 34.0112 20.6451 33.9718 20.6399 33.9324C20.6352 33.893 20.628 33.8544 20.6189 33.8159C20.6098 33.7778 20.5987 33.7402 20.5853 33.7035C19.9334 31.8867 19.4861 29.1155 21.048 26.2304C21.1232 26.0907 21.2115 25.9621 21.3132 25.8457C26.4579 19.8409 28.1037 13.7058 25.9469 8.57043C24.1217 4.22608 19.6543 1.29447 15.0543 1.29447Z"/>
</mask>
<path d="M19.7889 36.2866H12.1786C12.1141 36.2866 12.0503 36.2826 11.9862 36.2754C11.9225 36.2683 11.8591 36.2575 11.7962 36.2436C11.7333 36.2293 11.6711 36.2118 11.6098 36.1903C11.5484 36.1693 11.4882 36.1451 11.4289 36.1173C11.3695 36.0895 11.3117 36.0582 11.2551 36.0241C11.1985 35.9897 11.1435 35.9525 11.0904 35.9122C11.037 35.8718 10.9855 35.8288 10.9357 35.7827C10.8862 35.7366 10.8387 35.6878 10.7936 35.6367C10.748 35.5852 10.7049 35.5314 10.6641 35.4754C10.6237 35.4195 10.5854 35.3612 10.5497 35.3008C10.5141 35.2403 10.4812 35.178 10.4508 35.1144C10.4207 35.0504 10.393 34.9845 10.3684 34.9178C10.3439 34.8506 10.3221 34.7825 10.3035 34.7131C10.2849 34.6432 10.2691 34.5733 10.2568 34.5021C10.2441 34.4309 10.2346 34.3592 10.2283 34.2867C10.222 34.2146 10.2188 34.142 10.2184 34.0694V31.2664C10.2184 31.2023 10.2129 31.1392 10.2018 31.0765C10.1907 31.0137 10.1745 30.9533 10.1531 30.8942C10.1313 30.835 10.1048 30.779 10.0735 30.7262C10.0423 30.6729 10.0066 30.6236 9.96667 30.5788C9.92669 30.5336 9.88314 30.4933 9.83644 30.4579C9.78933 30.422 9.73985 30.392 9.6876 30.3678C9.63575 30.3432 9.58192 30.3248 9.5265 30.3123C9.47108 30.2998 9.41527 30.2935 9.35906 30.2935H5.61844C5.55431 30.2935 5.49058 30.2899 5.42646 30.2827C5.36273 30.2756 5.29939 30.2648 5.23646 30.2505C5.17352 30.2362 5.11137 30.2187 5.05002 30.1976C4.98867 30.1766 4.9281 30.152 4.86912 30.1242C4.80975 30.0964 4.75196 30.0655 4.69535 30.031C4.63875 29.997 4.58373 29.9593 4.53029 29.919C4.47725 29.8787 4.42579 29.8357 4.37592 29.7896C4.32644 29.7435 4.27894 29.6951 4.23342 29.6436C4.18829 29.5921 4.14514 29.5383 4.10437 29.4823C4.0636 29.4263 4.0256 29.3681 3.98998 29.3076C3.95435 29.2476 3.9211 29.1853 3.89102 29.1213C3.86054 29.0572 3.83323 28.9918 3.80869 28.9247C3.78414 28.8575 3.76237 28.7894 3.74377 28.72C3.72517 28.6505 3.70933 28.5802 3.69667 28.509C3.68439 28.4378 3.67489 28.3661 3.66856 28.294C3.66223 28.2214 3.65867 28.1493 3.65867 28.0768V23.3006C3.65867 23.2366 3.65312 23.1734 3.64244 23.1107C3.63135 23.0484 3.61512 22.9875 3.59375 22.9284C3.57198 22.8693 3.54585 22.8133 3.51458 22.7604C3.48331 22.7071 3.44769 22.6579 3.4081 22.6126C3.36812 22.5674 3.32498 22.5271 3.27787 22.4917C3.23117 22.4558 3.18169 22.4258 3.12983 22.4012C3.07758 22.3766 3.02375 22.3582 2.96873 22.3457C2.91331 22.3327 2.8575 22.3264 2.80129 22.3264H2.00685C1.92492 22.3264 1.84377 22.3206 1.76262 22.3089C1.68187 22.2973 1.60152 22.2803 1.52235 22.2574C1.44319 22.2346 1.366 22.2059 1.29 22.1723C1.214 22.1383 1.13998 22.0993 1.06833 22.055C0.996686 22.0106 0.927811 21.9618 0.861311 21.9076C0.795207 21.8534 0.732269 21.7952 0.672499 21.732C0.612728 21.6693 0.556519 21.6021 0.504269 21.5313C0.451624 21.4606 0.403332 21.3862 0.359394 21.3087C0.315061 21.2308 0.275478 21.1502 0.240249 21.0669C0.204624 20.9835 0.174144 20.898 0.148415 20.8106C0.122686 20.7229 0.101707 20.6337 0.0854777 20.5432C0.0696444 20.4523 0.0585611 20.3609 0.0526236 20.2691C0.0466861 20.1768 0.0458944 20.0846 0.0502486 19.9923C0.0546027 19.9 0.0637068 19.8082 0.0783527 19.7173C0.0926026 19.6264 0.111999 19.5368 0.136144 19.4485C0.160686 19.3603 0.189582 19.2743 0.223624 19.1901C1.29831 16.5201 2.11808 14.3884 2.88481 11.2588C3.72952 7.81166 5.21231 5.07533 7.29321 3.12555C9.14175 1.3948 11.4309 0.350709 13.9127 0.107043C16.4975 -0.147374 19.2117 0.481949 21.5571 1.87855C23.9621 3.31099 25.8724 5.49727 26.9396 8.03696C28.0274 10.6255 28.2486 13.5804 27.5801 16.5675C26.8244 19.9359 24.9842 23.3494 22.1025 26.712C22.0578 26.7626 22.019 26.8186 21.9857 26.8799C20.6617 29.3224 21.048 31.6829 21.605 33.2336C21.6354 33.3174 21.6608 33.4029 21.6817 33.4907C21.7027 33.5781 21.719 33.6663 21.73 33.7563C21.7415 33.8459 21.7479 33.936 21.7494 34.0264C21.751 34.1169 21.7475 34.2074 21.7395 34.2974C21.7312 34.3875 21.7182 34.4766 21.7004 34.5648C21.6821 34.6531 21.6596 34.74 21.6327 34.8251C21.6054 34.9102 21.5733 34.993 21.5373 35.0737C21.5009 35.1547 21.4605 35.2327 21.4157 35.3075C21.371 35.3827 21.3223 35.4544 21.2701 35.5229C21.2174 35.5915 21.1616 35.656 21.1022 35.7164C21.0429 35.7769 20.9803 35.8333 20.9146 35.8853C20.8493 35.9372 20.7812 35.9843 20.7104 36.0268C20.6399 36.0694 20.5671 36.107 20.4923 36.1393C20.4175 36.172 20.3415 36.1988 20.2639 36.2208C20.1863 36.2427 20.1075 36.2593 20.028 36.27C19.9488 36.2812 19.8688 36.2866 19.7889 36.2866ZM15.0543 1.29447C14.706 1.29447 14.3572 1.31149 14.0085 1.34598C9.08871 1.82883 5.41854 5.56267 3.94406 11.5907C3.15794 14.8014 2.28433 17.071 1.22389 19.7056C1.20925 19.7428 1.19658 19.7804 1.18589 19.819C1.17521 19.8579 1.1665 19.8973 1.16056 19.9372C1.15423 19.9771 1.14987 20.0174 1.14829 20.0577C1.14631 20.0985 1.14671 20.1388 1.14908 20.1791C1.15185 20.2194 1.1566 20.2597 1.16373 20.2996C1.17085 20.3394 1.17996 20.3784 1.19104 20.4169C1.20252 20.4555 1.21598 20.4926 1.23142 20.5294C1.24685 20.5661 1.26427 20.6015 1.28367 20.6355C1.30306 20.6696 1.32444 20.7023 1.34739 20.7332C1.37035 20.7641 1.39489 20.7936 1.42102 20.8214C1.44754 20.8487 1.47525 20.8747 1.50414 20.8984C1.53304 20.9222 1.56352 20.9437 1.59479 20.9629C1.62646 20.9822 1.65892 20.9997 1.69217 21.0145C1.72542 21.0292 1.75946 21.0418 1.79429 21.0516C1.82912 21.0619 1.86396 21.0695 1.89958 21.0745C1.93521 21.0794 1.97083 21.0821 2.00685 21.0821H2.80129C2.86542 21.0821 2.92914 21.0861 2.99287 21.0933C3.057 21.1005 3.12033 21.1112 3.18287 21.1255C3.24581 21.1399 3.30796 21.1573 3.36931 21.1788C3.43067 21.1999 3.49083 21.2245 3.55021 21.2523C3.60958 21.2801 3.66737 21.3114 3.72398 21.3455C3.78019 21.38 3.83521 21.4171 3.88864 21.4574C3.94169 21.4978 3.99314 21.5412 4.04262 21.5873C4.0921 21.6335 4.1396 21.6823 4.18512 21.7334C4.23025 21.7849 4.27339 21.8386 4.31377 21.8946C4.35454 21.9506 4.39254 22.0093 4.42817 22.0693C4.46379 22.1298 4.49664 22.192 4.52712 22.2561C4.55721 22.3201 4.58452 22.3855 4.60906 22.4527C4.6336 22.5195 4.65537 22.588 4.67398 22.6574C4.69258 22.7268 4.70802 22.7972 4.72069 22.8684C4.73296 22.9396 4.74246 23.0113 4.74879 23.0834C4.75512 23.1555 4.75829 23.2281 4.75829 23.3006V28.0781C4.75829 28.1421 4.76423 28.2053 4.77531 28.2676C4.78639 28.3303 4.80262 28.3907 4.82439 28.4499C4.84617 28.5085 4.87269 28.5645 4.90396 28.6178C4.93562 28.6707 4.97125 28.72 5.01123 28.7648C5.05121 28.81 5.09435 28.8503 5.14146 28.8857C5.18817 28.9211 5.23764 28.9506 5.28989 28.9753C5.34214 28.9995 5.39558 29.0183 5.451 29.0304C5.50642 29.0429 5.56223 29.0492 5.61844 29.0492H9.35906C9.42319 29.0496 9.48692 29.0532 9.55104 29.0604C9.61477 29.0675 9.6781 29.0783 9.74104 29.0922C9.80398 29.1065 9.86612 29.1244 9.92748 29.1455C9.98883 29.1665 10.049 29.1907 10.1084 29.2189C10.1674 29.2467 10.2255 29.2776 10.2821 29.3117C10.3387 29.3461 10.3934 29.3833 10.4468 29.4236C10.5002 29.464 10.5517 29.5074 10.6012 29.5531C10.6507 29.5992 10.6982 29.648 10.7437 29.6996C10.7888 29.7506 10.832 29.8044 10.8727 29.8604C10.9135 29.9168 10.9515 29.975 10.9871 30.035C11.0227 30.0955 11.056 30.1578 11.0861 30.2218C11.1162 30.2859 11.1439 30.3513 11.1684 30.4185C11.193 30.4852 11.2147 30.5537 11.2333 30.6232C11.2519 30.6926 11.2674 30.7629 11.28 30.8341C11.2927 30.9053 11.3022 30.977 11.3085 31.0491C11.3149 31.1212 11.318 31.1938 11.318 31.2664V34.0694C11.318 34.1335 11.3236 34.1966 11.3347 34.2593C11.3457 34.3221 11.3624 34.383 11.3837 34.4417C11.4055 34.5008 11.432 34.5568 11.4633 34.6101C11.495 34.6629 11.5306 34.7122 11.5706 34.7574C11.6106 34.8022 11.6537 34.8425 11.7008 34.8784C11.7479 34.9138 11.7974 34.9438 11.8492 34.968C11.9015 34.9926 11.9553 35.011 12.0107 35.0235C12.0662 35.036 12.122 35.0423 12.1786 35.0423H19.7889C19.8241 35.0423 19.8589 35.0401 19.8938 35.0351C19.9286 35.0302 19.963 35.023 19.9971 35.0132C20.0311 35.0038 20.0644 34.9917 20.0972 34.9778C20.1301 34.9635 20.1617 34.9469 20.193 34.9281C20.2239 34.9097 20.2536 34.8887 20.2825 34.8663C20.3114 34.8434 20.3387 34.8183 20.3648 34.7919C20.3905 34.7655 20.4151 34.7373 20.438 34.7073C20.4614 34.6773 20.4824 34.6455 20.5022 34.6128C20.5216 34.5796 20.5394 34.5456 20.5552 34.5102C20.5714 34.4748 20.5853 34.4385 20.5972 34.4009C20.609 34.3637 20.6189 34.3256 20.6269 34.2871C20.6348 34.2482 20.6403 34.2092 20.6439 34.1698C20.6478 34.1303 20.649 34.0905 20.6486 34.0511C20.6478 34.0112 20.6451 33.9718 20.6399 33.9324C20.6352 33.893 20.628 33.8544 20.6189 33.8159C20.6098 33.7778 20.5987 33.7402 20.5853 33.7035C19.9334 31.8867 19.4861 29.1155 21.048 26.2304C21.1232 26.0907 21.2115 25.9621 21.3132 25.8457C26.4579 19.8409 28.1037 13.7058 25.9469 8.57043C24.1217 4.22608 19.6543 1.29447 15.0543 1.29447Z" fill="white" stroke="white" stroke-width="438" mask="url(#path-3-inside-2_500_13)"/>
</g>
<path d="M21.6808 13.9656L15.9148 21.3758L15.5202 21.8829L15.1256 21.3759L9.35764 13.9657C9.3576 13.9656 9.35756 13.9656 9.35752 13.9655C8.06221 12.3027 8.06236 9.63762 9.35753 7.97404L21.6808 13.9656ZM21.6808 13.9656C22.9753 12.3027 22.9752 9.63773 21.6809 7.97415L21.6808 7.97404C21.065 7.18306 20.2179 6.70842 19.2853 6.70842C18.3523 6.70842 17.5062 7.18304 16.8905 7.9737L21.6808 13.9656ZM16.9547 8.69282L16.5874 8.35352C16.6295 8.30798 16.6697 8.25938 16.7084 8.20745L16.7151 8.19848L16.7152 8.19856L16.8902 7.97404L16.9547 8.69282ZM16.9547 8.69282L16.5874 8.35352C16.5444 8.40004 16.5005 8.44279 16.4557 8.48147C16.4082 8.52244 16.361 8.55908 16.3132 8.5917L16.312 8.59251C16.2647 8.62507 16.2149 8.65501 16.1623 8.68292C16.1107 8.71005 16.0591 8.73341 16.007 8.75329L16.007 8.75328L16.0045 8.75426C15.9527 8.77431 15.9004 8.79081 15.8467 8.80416L15.846 8.80431C15.7921 8.81776 15.737 8.82801 15.6814 8.83497C15.6276 8.84169 15.5731 8.84499 15.5174 8.84499C15.4615 8.84499 15.4067 8.84168 15.353 8.83497C15.2977 8.82805 15.243 8.81784 15.1887 8.80431L15.1881 8.80416C15.1338 8.79069 15.0812 8.77413 15.0299 8.75426L15.0283 8.75362C14.9751 8.73324 14.9231 8.70972 14.8731 8.68324C14.8205 8.65537 14.7703 8.62522 14.7217 8.59209M16.9547 8.69282L14.7217 8.59209M14.7217 8.59209C14.673 8.55854 14.6256 8.52189 14.5803 8.48254L14.5791 8.48147C14.5343 8.44279 14.4904 8.40004 14.4474 8.35352L14.0801 8.69282L14.4474 8.35352C14.4044 8.30703 14.3644 8.25884 14.3276 8.20902L14.3277 8.20893L14.3203 8.19942L14.1457 7.97457L14.1451 7.97377C13.5327 7.18814 12.686 6.70842 11.7522 6.70842C10.8203 6.70842 9.97325 7.18313 9.35755 7.97402L14.7217 8.59209ZM15.5024 22.1141L15.5022 22.1139L9.32131 14.1741C9.32131 14.1741 9.32131 14.1741 9.32131 14.1741C7.95457 12.4184 7.95461 9.52122 9.32128 7.76599L9.32129 7.76597C9.9917 6.90487 10.8582 6.46411 11.7522 6.46411C12.6466 6.46411 13.5128 6.90484 14.1836 7.76607L14.1838 7.76624L14.3518 7.98175C14.3829 8.02529 14.4163 8.0671 14.452 8.10706C14.4915 8.15218 14.5329 8.19344 14.5743 8.23062C14.6145 8.26673 14.6592 8.30355 14.7093 8.3388C14.7585 8.37394 14.8064 8.40308 14.8507 8.42783L14.8507 8.42788L14.8575 8.43155C14.9077 8.45864 14.9588 8.48241 15.0112 8.50332L15.0112 8.50335L15.0164 8.50535C15.0663 8.52459 15.119 8.54216 15.1744 8.55678L15.1744 8.55683L15.1814 8.55857C15.2315 8.57104 15.2869 8.58236 15.3465 8.58984C15.4062 8.59777 15.4645 8.60112 15.5206 8.60112C15.5768 8.60112 15.6348 8.59775 15.6942 8.58984C15.7533 8.58244 15.8092 8.57119 15.8606 8.55825L15.8606 8.55827L15.865 8.55713C15.9215 8.54237 15.9753 8.5245 16.0261 8.50466L16.0261 8.50467L16.0295 8.50332C16.0804 8.48302 16.1328 8.45905 16.1855 8.43035L16.1855 8.43036L16.1878 8.42906C16.2335 8.40384 16.2826 8.37406 16.3327 8.33795C16.3796 8.30482 16.4242 8.26893 16.4661 8.23092C16.5114 8.19062 16.5522 8.14877 16.5891 8.10703C16.6237 8.06794 16.6571 8.02627 16.6888 7.98199L16.857 7.76667L16.8576 7.76597C17.528 6.90479 18.3938 6.46411 19.2881 6.46411C20.182 6.46411 21.0482 6.9048 21.7191 7.76604C23.0861 9.52126 23.0861 12.4183 21.719 14.1741L21.719 14.1741L15.5385 22.1139L15.5373 22.1153C15.5289 22.1263 15.5236 22.1297 15.5203 22.1314C15.5157 22.1285 15.5099 22.1237 15.5024 22.1141Z" fill="white" stroke="white"/>
</svg>
