<svg width="21" height="28" viewBox="0 0 21 28" fill="none" xmlns="http://www.w3.org/2000/svg">
<mask id="mask0_69_3997" style="mask-type:luminance" maskUnits="userSpaceOnUse" x="0" y="6" width="16" height="22">
<path d="M0 6.90015H15.5114V27.9775H0V6.90015Z" fill="white"/>
</mask>
<g mask="url(#mask0_69_3997)">
<path d="M15.214 28.0057H8.86938C8.75532 28.0057 8.65254 27.9415 8.60867 27.8428C7.28886 24.8802 5.76266 24.9719 4.41653 25.0534C3.90807 25.084 3.42719 25.113 3.00939 24.9637C1.50325 24.4262 1.86631 22.9802 2.00293 22.436L2.02758 22.3361C2.03301 22.3122 2.03635 22.2938 2.03844 22.2797C2.03677 22.2789 2.0351 22.2785 2.03343 22.2778C1.91603 22.2288 1.69752 22.1375 1.57803 21.8386C1.46481 21.5553 1.55171 21.3101 1.62399 21.1471C1.47108 21.0813 1.35911 20.9657 1.30855 20.8184C1.21664 20.5493 1.34156 20.2202 1.64279 19.9377C1.7464 19.8406 1.78359 19.7156 1.74724 19.5859C1.68081 19.3489 1.38668 19.1413 0.960531 19.0304C0.484245 18.9062 0.159201 18.623 0.0455613 18.2328C-0.110276 17.6984 0.155023 17.1323 0.48717 16.8091L0.65387 16.6536C1.38668 15.9707 1.751 15.6311 2.06936 15.2436C1.82411 14.1988 1.67955 12.6239 2.28452 10.8504C2.93127 8.95304 4.13284 7.7037 5.02692 6.98991C5.14599 6.89471 5.32439 6.90842 5.4255 7.01968C5.5266 7.13133 5.5124 7.29862 5.39375 7.39342C4.55523 8.06295 3.42886 9.23354 2.82306 11.0118C2.23355 12.7402 2.40359 14.2673 2.64967 15.2436C2.66889 15.3192 2.65134 15.3995 2.60204 15.4622C2.23773 15.9253 1.84124 16.2943 1.05203 17.0297L0.890341 17.1809C0.637158 17.4277 0.509731 17.8128 0.591201 18.0929C0.652199 18.3017 0.827254 18.4451 1.11219 18.5195C1.74348 18.6841 2.17422 19.0234 2.29413 19.4508C2.38103 19.7614 2.28703 20.0835 2.04262 20.3127C1.84918 20.494 1.83623 20.6249 1.84709 20.6562C1.85085 20.6672 1.8801 20.6723 1.88929 20.6735C2.0376 20.697 2.14289 20.7604 2.20263 20.8627C2.2958 21.0225 2.22436 21.1781 2.16754 21.303C2.1032 21.4437 2.06434 21.544 2.10738 21.6525C2.14372 21.7434 2.17882 21.7579 2.26321 21.7935C2.47587 21.8821 2.67934 22.0298 2.57948 22.4513C2.57196 22.483 2.56319 22.5187 2.55316 22.5575C2.35262 23.3563 2.29329 24.141 3.21035 24.4685C3.51367 24.5762 3.91517 24.5519 4.38018 24.5241C5.73926 24.4423 7.59218 24.3302 9.05613 27.4753H15.214C15.3703 27.4753 15.4968 27.594 15.4968 27.7405C15.4968 27.887 15.3703 28.0057 15.214 28.0057Z" fill="#202C4D"/>
</g>
<mask id="mask1_69_3997" style="mask-type:luminance" maskUnits="userSpaceOnUse" x="16" y="7" width="5" height="21">
<path d="M16.8826 7.78394H20.9999V27.9775H16.8826V7.78394Z" fill="white"/>
</mask>
<g mask="url(#mask1_69_3997)">
<path d="M19.5828 28.0057H17.2018C17.0455 28.0057 16.9189 27.887 16.9189 27.7405C16.9189 27.594 17.0455 27.4753 17.2018 27.4753H19.1011C18.4385 26.3094 16.7376 22.9116 18.1322 20.9077C19.6363 18.7456 20.4518 17.137 20.4518 14.8322C20.4518 13.7698 20.2408 12.6885 19.8418 11.7052C19.3171 10.4108 18.4439 9.22686 17.3171 8.28075C17.2005 8.18281 17.1905 8.01513 17.2945 7.90622C17.399 7.79692 17.5778 7.78791 17.694 7.88546C18.888 8.88799 19.8134 10.1436 20.3708 11.5167C20.7936 12.5596 21.0171 13.7059 21.0171 14.8322C21.0171 17.2698 20.1698 18.9497 18.6056 21.1972C17.1299 23.3186 19.7984 27.5619 19.8255 27.6046C19.8773 27.6864 19.8786 27.7883 19.8285 27.8713C19.7779 27.9544 19.6843 28.0057 19.5828 28.0057Z" fill="#202C4D"/>
</g>
<path d="M11.5004 17C11.2239 17 11 16.8813 11 16.7352V3.26516C11 3.11868 11.2239 3 11.5004 3C11.7768 3 12 3.11868 12 3.26516V16.7352C12 16.8813 11.7768 17 11.5004 17Z" fill="#202C4D"/>
<mask id="mask2_69_3997" style="mask-type:luminance" maskUnits="userSpaceOnUse" x="9" y="0" width="5" height="6">
<path d="M9.60364 0H13.1332V5.00441H9.60364V0Z" fill="white"/>
</mask>
<g mask="url(#mask2_69_3997)">
<path d="M11.3839 0.681947C11.0175 1.08194 10.2705 2.02492 10.2705 3.06936C10.2705 3.79922 10.7706 4.39274 11.3852 4.39274C11.9993 4.39274 12.4998 3.79922 12.4998 3.06936C12.4998 2.03785 11.7503 1.08625 11.3839 0.681947ZM11.3852 4.92319C10.4589 4.92319 9.7052 4.09148 9.7052 3.06936C9.7052 1.46469 11.1278 0.153848 11.1884 0.0986095C11.2987 -0.00168235 11.4746 -0.000898842 11.5836 0.100568C11.6442 0.156591 13.0651 1.49094 13.0651 3.06936C13.0651 4.09148 12.3114 4.92319 11.3852 4.92319Z" fill="#202C4D"/>
</g>
<path d="M15.6449 10.6443C15.2803 10.6443 14.9018 10.7028 14.5431 10.8605C14.1814 11.0196 13.8879 11.2975 13.7167 11.6443C13.5551 11.9702 13.5233 12.3174 13.6275 12.6219C13.8498 13.2737 14.6226 13.5435 15.3498 13.2238C16.3775 12.7725 17.0548 11.5612 17.3248 10.9954C16.9765 10.8557 16.3369 10.6443 15.6449 10.6443ZM14.7365 14C14.0018 14 13.345 13.5739 13.0992 12.8542C12.9331 12.3673 12.9766 11.8258 13.2223 11.3293C13.458 10.8534 13.8544 10.4738 14.3384 10.261C15.9375 9.55842 17.7585 10.4923 17.8351 10.5327C17.975 10.6059 18.0378 10.7926 17.9766 10.9531C17.9423 11.0415 17.1268 13.1326 15.5545 13.8238C15.2824 13.943 15.0044 14 14.7365 14Z" fill="#202C4D"/>
<path d="M11.2634 16C11.2471 16 11.2311 15.9988 11.2148 15.9956C11.0724 15.9678 10.978 15.8255 11.0044 15.6777C11.025 15.5641 11.5293 12.882 13.6408 12.019C13.7759 11.9638 13.9285 12.0331 13.9817 12.1729C14.0348 12.3131 13.9685 12.4714 13.8334 12.5266C11.9897 13.2801 11.5254 15.7526 11.5211 15.7776C11.4975 15.9085 11.3872 16 11.2634 16Z" fill="#202C4D"/>
<path d="M15.6442 5.64499C15.2794 5.64499 14.9009 5.70342 14.542 5.86065C13.8146 6.18033 13.4038 6.97075 13.6262 7.62199C13.8485 8.27371 14.6216 8.54351 15.3489 8.22431C16.377 7.77257 17.0545 6.56129 17.3246 5.99555C16.9762 5.8559 16.3364 5.64499 15.6442 5.64499ZM14.7355 9C14.001 9 13.3435 8.57391 13.0977 7.85427C12.7623 6.87242 13.3184 5.70912 14.3372 5.26119C15.9365 4.55817 17.7585 5.49252 17.8351 5.53289C17.975 5.60604 18.0378 5.79272 17.9766 5.95328C17.9423 6.04163 17.1266 8.13263 15.5537 8.82377C15.2815 8.943 15.0035 9 14.7355 9Z" fill="#202C4D"/>
<path d="M11.2634 11C11.2471 11 11.2311 10.9984 11.2148 10.9952C11.0724 10.9678 10.978 10.8251 11.0044 10.6773C11.025 10.5637 11.5293 7.88163 13.6408 7.01904C13.7759 6.96385 13.9285 7.03274 13.9817 7.17255C14.0348 7.31275 13.9685 7.47109 13.8334 7.52628C11.9897 8.27969 11.5254 10.7522 11.5211 10.7772C11.4975 10.9081 11.3872 11 11.2634 11Z" fill="#202C4D"/>
<path d="M7.65043 11.4185C8.37798 11.6583 9.15033 11.4555 9.37261 10.9667C9.47643 10.7382 9.44461 10.4778 9.28345 10.2333C9.11223 9.97357 8.81836 9.76477 8.4571 9.6454C7.41265 9.30119 6.20579 9.58554 5.6754 9.74624C5.94624 10.1706 6.62566 11.0807 7.65043 11.4185ZM8.26328 12C7.99579 12 7.71782 11.958 7.44572 11.8682C5.87299 11.3497 5.05752 9.78116 5.02362 9.71453C4.96208 9.59444 5.02487 9.45441 5.16469 9.39953C5.24171 9.3696 7.06269 8.66871 8.66138 9.19571C9.14572 9.35535 9.54173 9.6397 9.77741 9.99709C10.0231 10.3695 10.0671 10.7757 9.9009 11.1409C9.65518 11.6807 8.99795 12 8.26328 12Z" fill="#202C4D"/>
<path d="M11.6492 14C11.484 14 11.3365 13.9314 11.3049 13.8329C11.2956 13.8036 10.6661 11.9564 8.22221 11.3947C8.04206 11.3533 7.95354 11.2346 8.02446 11.1294C8.09538 11.0246 8.29831 10.9729 8.47898 11.0143C11.2946 11.6612 11.9665 13.6725 11.9939 13.758C12.0297 13.8689 11.9039 13.9758 11.7139 13.9964C11.6921 13.9988 11.6704 14 11.6492 14Z" fill="#202C4D"/>
<path d="M7.65118 6.41816C8.37894 6.65795 9.1515 6.45521 9.37385 5.96637C9.5962 5.47787 9.185 4.88499 8.45808 4.64519C7.41334 4.30136 6.20613 4.58534 5.67559 4.74603C5.94651 5.17039 6.6257 6.08038 7.65118 6.41816ZM8.26421 7C7.99663 7 7.71859 6.9576 7.44642 6.86781C5.87323 6.34939 5.05754 4.78095 5.02362 4.71467C4.96207 4.59424 5.02488 4.45422 5.16474 4.3997C5.24178 4.36942 7.06328 3.66893 8.66242 4.19554C9.68162 4.53153 10.2377 5.40376 9.90229 6.1406C9.6565 6.6804 8.99908 7 8.26421 7Z" fill="#202C4D"/>
<path d="M11.6492 10C11.484 10 11.3365 9.90854 11.3049 9.7772C11.2956 9.73812 10.6661 7.27526 8.22221 6.52628C8.04206 6.47109 7.95354 6.31275 8.02446 6.17255C8.09538 6.03274 8.29831 5.96385 8.47898 6.01904C11.2946 6.88163 11.9665 9.56367 11.9939 9.67729C12.0297 9.82515 11.9039 9.96777 11.7139 9.99557C11.6921 9.99839 11.6704 10 11.6492 10Z" fill="#202C4D"/>
</svg>
