<svg width="25" height="29" viewBox="0 0 25 29" fill="none" xmlns="http://www.w3.org/2000/svg">
<path d="M11.2532 8.1853C11.6073 8.1853 11.9363 8.2984 12.2058 8.49021C12.4821 8.68752 12.6949 8.96733 12.8073 9.29355H12.8077C12.8207 9.33137 12.8262 9.36987 12.8255 9.40768V17.2036C12.8255 17.2672 12.807 17.3266 12.7753 17.3768C12.6279 17.6477 12.4103 17.8746 12.1477 18.0331C11.8864 18.1908 11.5801 18.2819 11.2532 18.2819C10.9181 18.2819 10.6032 18.185 10.3354 18.0172C10.1113 17.8773 9.92188 17.6876 9.78197 17.4641C9.40625 17.3951 9.07247 17.2046 8.8236 16.9351C8.53794 16.6261 8.36332 16.2129 8.36332 15.7595C8.36332 15.7079 8.36607 15.6543 8.37122 15.5986C8.2021 15.4601 8.0591 15.2896 7.95219 15.0964C7.81332 14.8465 7.73425 14.5598 7.73425 14.2566C7.73425 14.0466 7.77207 13.8445 7.84116 13.6568C7.88241 13.5457 7.93466 13.4399 7.99653 13.3405C7.93569 13.2422 7.88413 13.1374 7.84391 13.0274C7.77516 12.8404 7.73769 12.6389 7.73769 12.4303C7.73769 12.2055 7.78066 11.9903 7.85869 11.793C7.90716 11.6702 7.96972 11.5544 8.04397 11.4468C7.99482 11.3578 7.95322 11.2643 7.91988 11.167C7.86041 10.9906 7.82775 10.8033 7.82775 10.6098C7.82775 10.132 8.02197 9.69883 8.33582 9.38499L8.56613 9.61427L8.33547 9.38396L8.342 9.37777C8.65516 9.06771 9.08622 8.8759 9.56163 8.8759C9.66613 8.8759 9.76822 8.88518 9.86757 8.90305L9.85725 8.96218V8.96183L9.86791 8.90305C9.87616 8.90443 9.88407 8.90615 9.89232 8.90821C10.0161 8.72568 10.1759 8.56927 10.3615 8.4493C10.6197 8.28224 10.926 8.1853 11.2532 8.1853ZM11.829 9.01993C11.6674 8.90477 11.4684 8.83705 11.2532 8.83705C11.0535 8.83705 10.8689 8.8948 10.7153 8.99415C10.5595 9.09487 10.4334 9.23855 10.354 9.40837C10.289 9.57302 10.1041 9.65621 9.93735 9.59468L9.93769 9.59433C9.88372 9.5744 9.83044 9.55893 9.77785 9.54793C9.7696 9.54724 9.76135 9.54587 9.7531 9.54449C9.69122 9.53349 9.62694 9.52765 9.56163 9.52765C9.26394 9.52765 8.9941 9.64796 8.7985 9.84287L8.79644 9.84458L8.79575 9.8439C8.6005 10.0395 8.4795 10.3104 8.4795 10.6098C8.4795 10.7332 8.49944 10.8504 8.53622 10.958C8.57232 11.0646 8.62422 11.1632 8.68885 11.2509C8.79919 11.3756 8.7985 11.5661 8.68232 11.6898L8.44478 11.4667L8.68128 11.6898C8.58985 11.7875 8.5156 11.9033 8.46472 12.0322C8.41625 12.1549 8.38944 12.2893 8.38944 12.4303C8.38944 12.5623 8.41247 12.6877 8.4551 12.8032C8.49703 12.9181 8.55822 13.0239 8.63419 13.1164C8.74832 13.236 8.75553 13.4247 8.64553 13.5533L8.64519 13.5526C8.56303 13.6485 8.49703 13.7596 8.45235 13.8809C8.40938 13.9971 8.386 14.1239 8.386 14.2566C8.386 14.4484 8.43447 14.6272 8.51972 14.7808C8.60635 14.9369 8.73078 15.0696 8.88066 15.1662C9.00407 15.2346 9.07316 15.3779 9.04119 15.5226L9.03982 15.5223C9.03328 15.5526 9.02744 15.5856 9.02297 15.6206L9.0216 15.6406H9.02091C9.01713 15.676 9.01507 15.7158 9.01507 15.7595C9.01507 16.0434 9.12403 16.3019 9.3021 16.4944C9.47844 16.6856 9.72319 16.8127 9.99682 16.8375C10.1137 16.8413 10.2247 16.9083 10.2794 17.0207L9.9865 17.163L10.279 17.0217C10.3688 17.2056 10.508 17.3603 10.6792 17.4676C10.8438 17.5707 11.0404 17.6302 11.2532 17.6302C11.4581 17.6302 11.6492 17.5735 11.8118 17.4755C11.9589 17.3868 12.0834 17.2641 12.1738 17.1187V9.45752C12.1023 9.28049 11.9816 9.1289 11.829 9.01993Z" fill="#202C4D"/>
<path d="M10.6524 9.45453C10.4767 9.49096 10.364 9.66318 10.4004 9.83884C10.4368 10.0145 10.6091 10.1272 10.7851 10.0908C10.7991 10.0877 10.8132 10.0857 10.8263 10.0843C10.8349 10.0832 10.849 10.0829 10.8686 10.0829C10.98 10.0829 11.0814 10.1283 11.1542 10.2015C11.1587 10.2056 11.1632 10.2097 11.1676 10.2139C11.233 10.285 11.2728 10.3809 11.2728 10.4872C11.2728 10.6669 11.4186 10.813 11.5987 10.813C11.7785 10.813 11.9246 10.6669 11.9246 10.4872C11.9246 10.2073 11.8146 9.95228 11.6355 9.76253C11.629 9.75496 11.6224 9.74775 11.6152 9.74053C11.4241 9.5494 11.1601 9.43115 10.8686 9.43115C10.8376 9.43115 10.8016 9.43356 10.76 9.43768C10.7235 9.44146 10.6874 9.44696 10.6524 9.45453Z" fill="#202C4D"/>
<path d="M10.2234 12.1255C10.399 12.1619 10.5713 12.0492 10.6077 11.8735C10.6441 11.6979 10.5314 11.5256 10.3557 11.4892C10.3207 11.482 10.2846 11.4761 10.2481 11.4724C10.2069 11.4682 10.1705 11.4658 10.1395 11.4658C9.84974 11.4658 9.58574 11.5841 9.39427 11.7752L9.39358 11.7759L9.39289 11.7752C9.38567 11.7824 9.37914 11.79 9.37261 11.7975C9.19352 11.9873 9.08386 12.242 9.08386 12.5218C9.08386 12.7016 9.22961 12.8477 9.40939 12.8477C9.58952 12.8477 9.73527 12.7016 9.73527 12.5218C9.73527 12.4159 9.77514 12.3197 9.84046 12.2485C9.84527 12.2444 9.84939 12.2403 9.85386 12.2358L9.62355 12.0055L9.85386 12.2348C9.92605 12.1623 10.0271 12.1176 10.1395 12.1176C10.1591 12.1176 10.1735 12.1179 10.1818 12.1189C10.1952 12.1203 10.209 12.1224 10.2234 12.1255Z" fill="#202C4D"/>
<path d="M9.53685 15.0552C9.7125 15.0916 9.88472 14.9789 9.92116 14.8032C9.9576 14.6275 9.84485 14.4553 9.66919 14.4189C9.63413 14.4117 9.59804 14.4058 9.5616 14.402C9.52 14.3979 9.48391 14.3955 9.45297 14.3955C9.16285 14.3955 8.89885 14.5141 8.70704 14.7056L8.70635 14.7049V14.7052C8.51522 14.896 8.39697 15.16 8.39697 15.4515C8.39697 15.6316 8.54307 15.7774 8.72285 15.7774C8.90297 15.7774 9.04872 15.6316 9.04872 15.4515C9.04872 15.3401 9.0941 15.2387 9.16732 15.1659L8.93666 14.9352L9.16732 15.1645C9.2395 15.0923 9.34057 15.0473 9.45297 15.0473C9.47257 15.0473 9.48666 15.0479 9.49525 15.0486C9.50866 15.05 9.52241 15.0524 9.53685 15.0552Z" fill="#202C4D"/>
<path d="M10.8002 16.7671C10.9758 16.8035 11.1481 16.6904 11.1845 16.5148C11.2209 16.3391 11.1082 16.1669 10.9325 16.1305C10.8975 16.1232 10.8617 16.1174 10.8249 16.114C10.7837 16.1095 10.7472 16.1074 10.7166 16.1074C10.4262 16.1074 10.1622 16.2257 9.97036 16.4171L9.96968 16.4168C9.77889 16.6079 9.66064 16.8719 9.66064 17.1634C9.66064 17.3432 9.80639 17.489 9.98652 17.489C10.1663 17.489 10.3124 17.3432 10.3124 17.1634C10.3124 17.0517 10.3574 16.9506 10.4306 16.8774L10.2003 16.6471L10.4306 16.876C10.5028 16.8039 10.6042 16.7592 10.7166 16.7592C10.7359 16.7592 10.7503 16.7595 10.7589 16.7605C10.772 16.7616 10.7861 16.764 10.8002 16.7671Z" fill="#202C4D"/>
<path d="M11.3643 14.4705C11.3732 14.65 11.5262 14.7878 11.7053 14.7785C11.8844 14.7696 12.0226 14.6166 12.0133 14.4375C12.0116 14.4018 12.0074 14.365 12.0016 14.3282C11.9951 14.2884 11.9878 14.2526 11.9792 14.2213C11.9043 13.9405 11.7214 13.7164 11.4866 13.5809C11.2526 13.4458 10.9672 13.3994 10.6867 13.4747C10.5131 13.5211 10.41 13.6995 10.4564 13.8731C10.5028 14.0467 10.6812 14.1498 10.8548 14.1034C10.9638 14.0742 11.0738 14.0917 11.1632 14.1433C11.2519 14.1945 11.3216 14.2808 11.3505 14.3894C11.3553 14.4066 11.3584 14.4204 11.3598 14.43C11.3619 14.4427 11.3636 14.4564 11.3643 14.4705Z" fill="#202C4D"/>
<path d="M14.2143 10.0908C14.39 10.1272 14.5622 10.0145 14.5987 9.83884C14.6351 9.66318 14.5223 9.49096 14.3467 9.45453C14.3116 9.44696 14.2759 9.44146 14.2391 9.43768C14.1978 9.43356 14.1614 9.43115 14.1305 9.43115C13.839 9.43115 13.575 9.5494 13.3838 9.74053C13.377 9.74775 13.3701 9.75496 13.3639 9.76253C13.1845 9.95228 13.0745 10.2073 13.0745 10.4872C13.0745 10.6669 13.2206 10.813 13.4003 10.813C13.5805 10.813 13.7262 10.6669 13.7262 10.4872C13.7262 10.3809 13.7661 10.285 13.8314 10.2139C13.8359 10.2097 13.8403 10.2056 13.8448 10.2015C13.918 10.1283 14.0191 10.0829 14.1305 10.0829C14.1501 10.0829 14.1642 10.0832 14.1727 10.0843C14.1862 10.0857 14.1999 10.0877 14.2143 10.0908Z" fill="#202C4D"/>
<path d="M14.6433 11.4892C14.4677 11.5256 14.3549 11.6979 14.3914 11.8735C14.4278 12.0492 14.6 12.1619 14.776 12.1255C14.7901 12.1224 14.8039 12.1203 14.8173 12.1189C14.8259 12.1179 14.84 12.1176 14.8595 12.1176C14.972 12.1176 15.073 12.1623 15.1452 12.2348L15.3759 12.0055L15.1452 12.2358C15.1497 12.2403 15.1541 12.2444 15.1586 12.2485C15.2239 12.3197 15.2638 12.4159 15.2638 12.5218C15.2638 12.7016 15.4095 12.8477 15.5897 12.8477C15.7695 12.8477 15.9155 12.7016 15.9155 12.5218C15.9155 12.242 15.8055 11.9873 15.6265 11.7975C15.6199 11.79 15.6134 11.7824 15.6062 11.7752L15.6055 11.7759L15.6048 11.7752C15.4133 11.5841 15.1497 11.4658 14.8595 11.4658C14.8286 11.4658 14.7925 11.4682 14.7509 11.4724C14.7145 11.4761 14.6784 11.4816 14.6433 11.4892Z" fill="#202C4D"/>
<path d="M15.3301 14.4189C15.1541 14.4553 15.0413 14.6275 15.0778 14.8032C15.1145 14.9789 15.2868 15.0916 15.4624 15.0552C15.4765 15.0524 15.4906 15.05 15.5037 15.0486C15.5123 15.0479 15.5264 15.0473 15.546 15.0473C15.6584 15.0473 15.7594 15.0919 15.832 15.1645L16.0623 14.9352L15.8316 15.1659H15.832C15.9048 15.2387 15.9502 15.3401 15.9502 15.4515C15.9502 15.6316 16.096 15.7774 16.2761 15.7774C16.4559 15.7774 16.602 15.6316 16.602 15.4515C16.602 15.16 16.4837 14.896 16.2926 14.7052V14.7049L16.2919 14.7056C16.1004 14.5141 15.8364 14.3955 15.546 14.3955C15.515 14.3955 15.4789 14.3979 15.4373 14.402C15.4009 14.4058 15.3648 14.4117 15.3301 14.4189Z" fill="#202C4D"/>
<path d="M14.0664 16.1305C13.8908 16.1669 13.778 16.3391 13.8145 16.5148C13.8509 16.6904 14.0231 16.8035 14.1988 16.7671C14.2132 16.764 14.227 16.7616 14.2404 16.7602C14.249 16.7595 14.2631 16.7592 14.2826 16.7592C14.3951 16.7592 14.4961 16.8039 14.5683 16.876L14.7986 16.6471L14.5683 16.8774C14.6415 16.9506 14.6869 17.0517 14.6869 17.1634C14.6869 17.3432 14.8326 17.489 15.0128 17.489C15.1926 17.489 15.3386 17.3432 15.3386 17.1634C15.3386 16.8719 15.2201 16.6079 15.0293 16.4168L15.0286 16.4171C14.8368 16.2257 14.5728 16.1074 14.2826 16.1074C14.2517 16.1074 14.2156 16.1095 14.174 16.114C14.1376 16.1174 14.1015 16.1232 14.0664 16.1305Z" fill="#202C4D"/>
<path d="M12.9858 14.4374C12.9768 14.6165 13.1147 14.7694 13.2938 14.7784C13.4732 14.7877 13.6258 14.6498 13.6351 14.4704C13.6358 14.4563 13.6372 14.4425 13.6392 14.4298C13.6406 14.4202 13.6437 14.4064 13.6485 14.3893C13.6774 14.2806 13.7472 14.1944 13.8359 14.1431C13.9252 14.0916 14.0352 14.074 14.1442 14.1033C14.3178 14.1497 14.4962 14.0465 14.5426 13.8729C14.589 13.6994 14.4859 13.5209 14.3123 13.4745C14.0318 13.3996 13.7468 13.4457 13.5127 13.5808C13.278 13.7162 13.0951 13.9403 13.0198 14.2212C13.0115 14.2524 13.004 14.2882 12.9975 14.3281C12.9916 14.3649 12.9878 14.4016 12.9858 14.4374Z" fill="#202C4D"/>
<path d="M8.85831 21.8976C8.85831 22.0777 9.00406 22.2234 9.18384 22.2234C9.36396 22.2234 9.50971 22.0777 9.50971 21.8976C9.50971 18.5505 8.53484 17.5399 7.59984 16.5712C6.82709 15.7702 6.08425 15.0009 6.08425 12.6174C6.08425 10.846 6.80234 9.24207 7.96318 8.08122C9.12403 6.92038 10.728 6.20229 12.4997 6.20229C14.271 6.20229 15.8749 6.92038 17.0358 8.08122C18.1966 9.24207 18.9147 10.846 18.9147 12.6174C18.9147 15.0009 18.1722 15.7702 17.3991 16.5715C16.4641 17.5402 15.4892 18.5505 15.4892 21.8976C15.4892 22.0777 15.635 22.2234 15.8151 22.2234C15.9949 22.2234 16.141 22.0777 16.141 21.8976C16.141 18.811 17.0224 17.8977 17.8677 17.0218C18.7339 16.1239 19.5665 15.2615 19.5665 12.6174C19.5665 10.6659 18.7755 8.89901 17.4964 7.62026C16.218 6.34151 14.4508 5.55054 12.4997 5.55054C10.5482 5.55054 8.78131 6.34151 7.50256 7.62026C6.22381 8.89901 5.4325 10.6659 5.4325 12.6174C5.4325 15.2615 6.26506 16.1239 7.13165 17.0218C7.97659 17.8977 8.85831 18.811 8.85831 21.8976Z" fill="#202C4D"/>
<path d="M9.29173 23.9301C9.47151 23.9301 9.61761 23.7841 9.61761 23.6043C9.61761 23.4241 9.47151 23.2784 9.29173 23.2784C9.14701 23.2784 9.01536 23.2189 8.91945 23.123C8.82389 23.0275 8.76442 22.8955 8.76442 22.7511C8.76442 22.6064 8.82389 22.4744 8.91945 22.3788C9.01536 22.2829 9.14701 22.2234 9.29173 22.2234H15.7071C15.8519 22.2234 15.9839 22.2829 16.0794 22.3788C16.1753 22.4744 16.2345 22.6064 16.2345 22.7511C16.2345 22.8955 16.1753 23.0275 16.0794 23.123C15.9839 23.2189 15.8519 23.2784 15.7071 23.2784C15.5274 23.2784 15.3813 23.4241 15.3813 23.6043C15.3813 23.7841 15.5274 23.9301 15.7071 23.9301C16.0316 23.9301 16.3266 23.7975 16.5404 23.584C16.7539 23.3705 16.8862 23.0756 16.8862 22.7511C16.8862 22.4262 16.7539 22.1316 16.5404 21.9178C16.3266 21.7044 16.0316 21.572 15.7071 21.572H9.29173C8.96723 21.572 8.6723 21.7044 8.45883 21.9178C8.24501 22.1316 8.11267 22.4262 8.11267 22.7511C8.11267 23.0756 8.24501 23.3705 8.45883 23.584C8.6723 23.7975 8.96723 23.9301 9.29173 23.9301Z" fill="#202C4D"/>
<path d="M9.4289 25.6364C9.60903 25.6364 9.75478 25.4904 9.75478 25.3106C9.75478 25.1308 9.60903 24.9847 9.4289 24.9847H8.70496C8.56059 24.9847 8.42859 24.9252 8.33303 24.8293C8.23712 24.7338 8.17765 24.6021 8.17765 24.4574C8.17765 24.3127 8.23712 24.1807 8.33303 24.0851C8.42859 23.9895 8.56059 23.9301 8.70496 23.9301H16.2939C16.4387 23.9301 16.5703 23.9895 16.6659 24.0851C16.7618 24.1807 16.8212 24.3127 16.8212 24.4574C16.8212 24.6021 16.7618 24.7338 16.6659 24.8293L16.6528 24.8434C16.559 24.9307 16.4328 24.9847 16.2939 24.9847H15.5703C15.3906 24.9847 15.2445 25.1308 15.2445 25.3106C15.2445 25.4904 15.3906 25.6364 15.5703 25.6364H16.2939C16.6067 25.6364 16.8931 25.512 17.1052 25.3102C17.1127 25.3037 17.12 25.2972 17.1268 25.2903C17.3403 25.0768 17.473 24.7819 17.473 24.4574C17.473 24.1325 17.3403 23.8379 17.1268 23.6241C16.9134 23.4107 16.6184 23.2783 16.2939 23.2783H8.70496C8.38046 23.2783 8.08553 23.4107 7.87206 23.6241C7.65859 23.8379 7.52625 24.1325 7.52625 24.4574C7.52625 24.7819 7.65859 25.0768 7.87206 25.2903C8.08553 25.5038 8.38046 25.6364 8.70496 25.6364H9.4289Z" fill="#202C4D"/>
<path d="M9.45506 24.9849H15.5439C15.8688 24.9849 16.1633 25.1176 16.3772 25.331C16.5906 25.5445 16.723 25.8394 16.723 26.1639C16.723 26.4884 16.5906 26.7834 16.3772 26.9968C16.1633 27.2106 15.8688 27.343 15.5439 27.343H9.45506C9.13022 27.343 8.83563 27.2106 8.62181 26.9968C8.40834 26.7834 8.276 26.4884 8.276 26.1639C8.276 25.8394 8.40834 25.5445 8.62181 25.331C8.83563 25.1176 9.13022 24.9849 9.45506 24.9849ZM15.5439 25.6366H9.45506C9.31034 25.6366 9.17834 25.6961 9.08278 25.7916C8.98722 25.8876 8.92775 26.0192 8.92775 26.1639C8.92775 26.3086 8.98722 26.4403 9.08278 26.5362C9.17834 26.6318 9.31034 26.6912 9.45506 26.6912H15.5443C15.6886 26.6912 15.8206 26.6318 15.9162 26.5362C16.0121 26.4403 16.0716 26.3086 16.0716 26.1639C16.0716 26.0192 16.0121 25.8876 15.9162 25.7916C15.8206 25.6961 15.6886 25.6366 15.5443 25.6366H15.5439Z" fill="#202C4D"/>
<mask id="mask0_504_15" style="mask-type:luminance" maskUnits="userSpaceOnUse" x="10" y="26" width="5" height="3">
<path d="M10.432 26.6321H14.568V28.7183H10.432V26.6321Z" fill="white"/>
</mask>
<g mask="url(#mask0_504_15)">
<path d="M14.5487 27.017C14.5487 26.8373 14.4026 26.6912 14.2229 26.6912C14.0427 26.6912 13.897 26.8373 13.897 27.017V27.6887C13.897 27.7843 13.8585 27.8706 13.7963 27.9324L14.0255 28.1628L13.7952 27.9324L13.7829 27.9455C13.722 28.0005 13.6405 28.0342 13.5512 28.0342H11.4478C11.3529 28.0342 11.2666 27.9953 11.2037 27.9324C11.1411 27.8699 11.1019 27.7833 11.1019 27.6887V27.017C11.1019 26.8373 10.9562 26.6912 10.7761 26.6912C10.5963 26.6912 10.4502 26.8373 10.4502 27.017V27.6887C10.4502 27.9634 10.5626 28.2129 10.7431 28.3934C10.9235 28.5739 11.1731 28.6859 11.4478 28.6859H13.5512C13.8141 28.6859 14.0548 28.5821 14.2339 28.4133C14.2414 28.4072 14.2486 28.4003 14.2559 28.3934L14.2552 28.3927L14.2559 28.392C14.4367 28.2109 14.5487 27.9617 14.5487 27.6887V27.017Z" fill="#202C4D"/>
</g>
<path d="M12.1738 21.8978C12.1738 22.0776 12.3196 22.2233 12.4997 22.2233C12.6795 22.2233 12.8256 22.0776 12.8256 21.8978V17.2036C12.8256 17.0234 12.6795 16.8777 12.4997 16.8777C12.3196 16.8777 12.1738 17.0234 12.1738 17.2036V21.8978Z" fill="#202C4D"/>
<mask id="mask1_504_15" style="mask-type:luminance" maskUnits="userSpaceOnUse" x="12" y="0" width="1" height="4">
<path d="M12.104 0.866211H12.896V3.57599H12.104V0.866211Z" fill="white"/>
</mask>
<g mask="url(#mask1_504_15)">
<path d="M12.8256 1.20576C12.8256 1.02563 12.6795 0.879883 12.4997 0.879883C12.3196 0.879883 12.1738 1.02563 12.1738 1.20576V3.24213C12.1738 3.42226 12.3196 3.56801 12.4997 3.56801C12.6795 3.56801 12.8256 3.42226 12.8256 3.24213V1.20576Z" fill="#202C4D"/>
</g>
<path d="M18.8288 2.98925C18.9189 2.83387 18.8656 2.63484 18.7106 2.54512C18.5552 2.45506 18.3561 2.508 18.2661 2.66337L17.2479 4.42715C17.1582 4.58218 17.2111 4.78122 17.3661 4.87128C17.5215 4.96134 17.7206 4.90806 17.8106 4.75303L18.8288 2.98925Z" fill="#202C4D"/>
<path d="M23.1377 7.53509C23.2931 7.44503 23.346 7.246 23.2563 7.09097C23.1662 6.93559 22.9672 6.88265 22.8118 6.97237L21.0484 7.9909C20.893 8.08062 20.8401 8.27965 20.9298 8.43503C21.0198 8.5904 21.2189 8.64334 21.3742 8.55328L23.1377 7.53509Z" fill="#202C4D"/>
<mask id="mask2_504_15" style="mask-type:luminance" maskUnits="userSpaceOnUse" x="22" y="12" width="3" height="2">
<path d="M22.224 12.9041H24.8953V13.6961H22.224V12.9041Z" fill="white"/>
</mask>
<g mask="url(#mask2_504_15)">
<path d="M24.5955 13.6276C24.7753 13.6276 24.9214 13.4815 24.9214 13.3017C24.9214 13.1216 24.7753 12.9758 24.5955 12.9758H22.5588C22.379 12.9758 22.2329 13.1216 22.2329 13.3017C22.2329 13.4815 22.379 13.6276 22.5588 13.6276H24.5955Z" fill="#202C4D"/>
</g>
<mask id="mask3_504_15" style="mask-type:luminance" maskUnits="userSpaceOnUse" x="0" y="12" width="3" height="2">
<path d="M0.0792236 12.9041H2.77594V13.6961H0.0792236V12.9041Z" fill="white"/>
</mask>
<g mask="url(#mask3_504_15)">
<path d="M0.403878 12.9758C0.223753 12.9758 0.0780029 13.1216 0.0780029 13.3017C0.0780029 13.4815 0.223753 13.6276 0.403878 13.6276H2.44025C2.62003 13.6276 2.76613 13.4815 2.76613 13.3017C2.76613 13.1216 2.62003 12.9758 2.44025 12.9758H0.403878Z" fill="#202C4D"/>
</g>
<path d="M2.18712 6.97237C2.03175 6.88265 1.83272 6.93559 1.743 7.09097C1.65294 7.246 1.70587 7.44503 1.86125 7.53509L3.62503 8.55328C3.78006 8.64334 3.97909 8.5904 4.06915 8.43503C4.15887 8.27965 4.10594 8.08062 3.9509 7.9909L2.18712 6.97237Z" fill="#202C4D"/>
<path d="M6.73297 2.66337C6.6429 2.508 6.44387 2.45506 6.28884 2.54512C6.13347 2.63484 6.08053 2.83387 6.17025 2.98925L7.18878 4.75303C7.2785 4.90806 7.47753 4.96134 7.6329 4.87128C7.78828 4.78122 7.84122 4.58218 7.75115 4.42715L6.73297 2.66337Z" fill="#202C4D"/>
<path d="M13.7461 8.1853C13.392 8.1853 13.063 8.2984 12.7935 8.49021C12.5175 8.68752 12.3044 8.96733 12.192 9.29355C12.1789 9.33137 12.1731 9.36987 12.1738 9.40768V17.2036C12.1738 17.2672 12.1923 17.3266 12.224 17.3768C12.3714 17.6477 12.589 17.8746 12.8516 18.0331C13.1129 18.1908 13.4192 18.2819 13.7461 18.2819C14.0812 18.2819 14.3961 18.185 14.6639 18.0172C14.888 17.8773 15.0774 17.6876 15.2173 17.4641C15.593 17.3951 15.9268 17.2046 16.1757 16.9351C16.4614 16.6261 16.636 16.2129 16.636 15.7595C16.636 15.7079 16.6332 15.6543 16.6281 15.5986C16.7975 15.4601 16.9402 15.2896 17.0471 15.0964C17.186 14.8465 17.265 14.5598 17.265 14.2566C17.265 14.0466 17.2272 13.8445 17.1581 13.6568C17.1169 13.5457 17.0646 13.4399 17.0028 13.3405C17.0636 13.2422 17.1152 13.1374 17.1554 13.0274C17.2241 12.8404 17.2616 12.6389 17.2616 12.4303C17.2616 12.2055 17.2186 11.9903 17.1406 11.793C17.0921 11.6702 17.0296 11.5544 16.9553 11.4468C17.0045 11.3578 17.0464 11.2643 17.0794 11.167C17.1389 10.9906 17.1715 10.8033 17.1715 10.6098C17.1715 10.132 16.9773 9.69883 16.6635 9.38499L16.4332 9.61427L16.6638 9.38396L16.6576 9.37777C16.3441 9.06771 15.9131 8.8759 15.4377 8.8759C15.3335 8.8759 15.2311 8.88518 15.1317 8.90305C15.1235 8.90443 15.1152 8.90615 15.107 8.90821C14.9832 8.72568 14.8234 8.56927 14.6378 8.4493C14.38 8.28224 14.0733 8.1853 13.7461 8.1853ZM13.1706 9.01993C13.3319 8.90477 13.5309 8.83705 13.7461 8.83705C13.9458 8.83705 14.1304 8.8948 14.284 8.99415C14.4398 9.09487 14.5659 9.23855 14.6453 9.40837C14.7103 9.57302 14.8952 9.65621 15.062 9.59468C15.1159 9.57474 15.1689 9.55893 15.2215 9.54793C15.2297 9.54724 15.238 9.54587 15.2462 9.54449C15.3084 9.53349 15.3724 9.52765 15.4377 9.52765C15.7357 9.52765 16.0055 9.64796 16.2011 9.84287L16.2029 9.84458C16.3981 10.0402 16.5198 10.3104 16.5198 10.6098C16.5198 10.7332 16.4999 10.8504 16.4634 10.958C16.427 11.0646 16.3751 11.1632 16.3105 11.2509C16.2001 11.3756 16.2011 11.5661 16.317 11.6898L16.5545 11.4667L16.318 11.6898C16.4095 11.7875 16.4837 11.9033 16.5346 12.0322C16.583 12.1549 16.6099 12.2893 16.6099 12.4303C16.6099 12.5623 16.5868 12.6877 16.5445 12.8032C16.5023 12.9181 16.4411 13.0239 16.3651 13.1164C16.251 13.236 16.2438 13.4247 16.3538 13.5533C16.4363 13.6492 16.5023 13.7596 16.547 13.8809C16.5899 13.9971 16.6136 14.1239 16.6136 14.2566C16.6136 14.4484 16.5648 14.6272 16.4796 14.7808C16.393 14.9369 16.2685 15.0696 16.1186 15.1662C15.9952 15.2346 15.9261 15.3779 15.9581 15.5226L15.9595 15.5223C15.9664 15.5526 15.9719 15.5856 15.9763 15.6206L15.9777 15.6406C15.9815 15.676 15.9842 15.7158 15.9842 15.7595C15.9842 16.0434 15.8753 16.3019 15.6972 16.4944C15.5209 16.6856 15.2761 16.8127 15.0025 16.8375C14.8856 16.8413 14.7746 16.9083 14.7199 17.0207L15.0128 17.163L14.7203 17.0217C14.6309 17.2056 14.4913 17.3603 14.3201 17.4676C14.1555 17.5707 13.9589 17.6302 13.7461 17.6302C13.5412 17.6302 13.3501 17.5735 13.1875 17.4755C13.0404 17.3868 12.9159 17.2641 12.8255 17.1187V9.45752C12.897 9.28049 13.0177 9.1289 13.1706 9.01993Z" fill="#202C4D"/>
</svg>
