<svg width="33" height="33" viewBox="0 0 33 33" fill="none" xmlns="http://www.w3.org/2000/svg">
<path d="M15.2532 9.1853C15.6073 9.1853 15.9363 9.2984 16.2058 9.49021C16.4821 9.68752 16.6949 9.96733 16.8073 10.2936H16.8077C16.8207 10.3314 16.8262 10.3699 16.8255 10.4077V18.2036C16.8255 18.2672 16.807 18.3266 16.7753 18.3768C16.6279 18.6477 16.4103 18.8746 16.1477 19.0331C15.8864 19.1908 15.5801 19.2819 15.2532 19.2819C14.9181 19.2819 14.6032 19.185 14.3354 19.0172C14.1113 18.8773 13.9219 18.6876 13.782 18.4641C13.4063 18.3951 13.0725 18.2046 12.8236 17.9351C12.5379 17.6261 12.3633 17.2129 12.3633 16.7595C12.3633 16.7079 12.3661 16.6543 12.3712 16.5986C12.2021 16.4601 12.0591 16.2896 11.9522 16.0964C11.8133 15.8465 11.7343 15.5598 11.7343 15.2566C11.7343 15.0466 11.7721 14.8445 11.8412 14.6568C11.8824 14.5457 11.9347 14.4399 11.9965 14.3405C11.9357 14.2422 11.8841 14.1374 11.8439 14.0274C11.7752 13.8404 11.7377 13.6389 11.7377 13.4303C11.7377 13.2055 11.7807 12.9903 11.8587 12.793C11.9072 12.6702 11.9697 12.5544 12.044 12.4468C11.9948 12.3578 11.9532 12.2643 11.9199 12.167C11.8604 11.9906 11.8278 11.8033 11.8278 11.6098C11.8278 11.132 12.022 10.6988 12.3358 10.385L12.5661 10.6143L12.3355 10.384L12.342 10.3778C12.6552 10.0677 13.0862 9.8759 13.5616 9.8759C13.6661 9.8759 13.7682 9.88518 13.8676 9.90305L13.8573 9.96218V9.96183L13.8679 9.90305C13.8762 9.90443 13.8841 9.90615 13.8923 9.90821C14.0161 9.72568 14.1759 9.56927 14.3615 9.4493C14.6197 9.28224 14.926 9.1853 15.2532 9.1853ZM15.829 10.0199C15.6674 9.90477 15.4684 9.83705 15.2532 9.83705C15.0535 9.83705 14.8689 9.8948 14.7153 9.99415C14.5595 10.0949 14.4334 10.2386 14.354 10.4084C14.289 10.573 14.1041 10.6562 13.9373 10.5947L13.9377 10.5943C13.8837 10.5744 13.8304 10.5589 13.7778 10.5479C13.7696 10.5472 13.7613 10.5459 13.7531 10.5445C13.6912 10.5335 13.6269 10.5276 13.5616 10.5276C13.2639 10.5276 12.9941 10.648 12.7985 10.8429L12.7964 10.8446L12.7958 10.8439C12.6005 11.0395 12.4795 11.3104 12.4795 11.6098C12.4795 11.7332 12.4994 11.8504 12.5362 11.958C12.5723 12.0646 12.6242 12.1632 12.6888 12.2509C12.7992 12.3756 12.7985 12.5661 12.6823 12.6898L12.4448 12.4667L12.6813 12.6898C12.5898 12.7875 12.5156 12.9033 12.4647 13.0322C12.4163 13.1549 12.3894 13.2893 12.3894 13.4303C12.3894 13.5623 12.4125 13.6877 12.4551 13.8032C12.497 13.9181 12.5582 14.0239 12.6342 14.1164C12.7483 14.236 12.7555 14.4247 12.6455 14.5533L12.6452 14.5526C12.563 14.6485 12.497 14.7596 12.4523 14.8809C12.4094 14.9971 12.386 15.1239 12.386 15.2566C12.386 15.4484 12.4345 15.6272 12.5197 15.7808C12.6063 15.9369 12.7308 16.0696 12.8807 16.1662C13.0041 16.2346 13.0732 16.3779 13.0412 16.5226L13.0398 16.5223C13.0333 16.5526 13.0274 16.5856 13.023 16.6206L13.0216 16.6406H13.0209C13.0171 16.676 13.0151 16.7158 13.0151 16.7595C13.0151 17.0434 13.124 17.3019 13.3021 17.4944C13.4784 17.6856 13.7232 17.8127 13.9968 17.8375C14.1137 17.8413 14.2247 17.9083 14.2794 18.0207L13.9865 18.163L14.279 18.0217C14.3688 18.2056 14.508 18.3603 14.6792 18.4676C14.8438 18.5707 15.0404 18.6302 15.2532 18.6302C15.4581 18.6302 15.6492 18.5735 15.8118 18.4755C15.9589 18.3868 16.0834 18.2641 16.1738 18.1187V10.4575C16.1023 10.2805 15.9816 10.1289 15.829 10.0199Z" fill="#FCF4E7"/>
<path d="M14.6524 10.4545C14.4767 10.491 14.364 10.6632 14.4004 10.8388C14.4368 11.0145 14.6091 11.1272 14.7851 11.0908C14.7991 11.0877 14.8132 11.0857 14.8263 11.0843C14.8349 11.0832 14.849 11.0829 14.8686 11.0829C14.98 11.0829 15.0814 11.1283 15.1542 11.2015C15.1587 11.2056 15.1632 11.2097 15.1676 11.2139C15.233 11.285 15.2728 11.3809 15.2728 11.4872C15.2728 11.6669 15.4186 11.813 15.5987 11.813C15.7785 11.813 15.9246 11.6669 15.9246 11.4872C15.9246 11.2073 15.8146 10.9523 15.6355 10.7625C15.629 10.755 15.6224 10.7477 15.6152 10.7405C15.4241 10.5494 15.1601 10.4312 14.8686 10.4312C14.8376 10.4312 14.8016 10.4336 14.76 10.4377C14.7235 10.4415 14.6874 10.447 14.6524 10.4545Z" fill="#FCF4E7"/>
<path d="M14.2234 13.1255C14.399 13.1619 14.5713 13.0492 14.6077 12.8735C14.6441 12.6979 14.5314 12.5256 14.3557 12.4892C14.3207 12.482 14.2846 12.4761 14.2481 12.4724C14.2069 12.4682 14.1705 12.4658 14.1395 12.4658C13.8497 12.4658 13.5857 12.5841 13.3943 12.7752L13.3936 12.7759L13.3929 12.7752C13.3857 12.7824 13.3791 12.79 13.3726 12.7975C13.1935 12.9873 13.0839 13.242 13.0839 13.5218C13.0839 13.7016 13.2296 13.8477 13.4094 13.8477C13.5895 13.8477 13.7353 13.7016 13.7353 13.5218C13.7353 13.4159 13.7751 13.3197 13.8405 13.2485C13.8453 13.2444 13.8494 13.2403 13.8539 13.2358L13.6235 13.0055L13.8539 13.2348C13.926 13.1623 14.0271 13.1176 14.1395 13.1176C14.1591 13.1176 14.1735 13.1179 14.1818 13.1189C14.1952 13.1203 14.209 13.1224 14.2234 13.1255Z" fill="#FCF4E7"/>
<path d="M13.5368 16.0552C13.7125 16.0916 13.8847 15.9789 13.9212 15.8032C13.9576 15.6275 13.8448 15.4553 13.6692 15.4189C13.6341 15.4117 13.598 15.4058 13.5616 15.402C13.52 15.3979 13.4839 15.3955 13.453 15.3955C13.1628 15.3955 12.8988 15.5141 12.707 15.7056L12.7063 15.7049V15.7052C12.5152 15.896 12.397 16.16 12.397 16.4515C12.397 16.6316 12.5431 16.7774 12.7228 16.7774C12.903 16.7774 13.0487 16.6316 13.0487 16.4515C13.0487 16.3401 13.0941 16.2387 13.1673 16.1659L12.9367 15.9352L13.1673 16.1645C13.2395 16.0923 13.3406 16.0473 13.453 16.0473C13.4726 16.0473 13.4867 16.0479 13.4953 16.0486C13.5087 16.05 13.5224 16.0524 13.5368 16.0552Z" fill="#FCF4E7"/>
<path d="M14.8002 17.7671C14.9758 17.8035 15.1481 17.6904 15.1845 17.5148C15.2209 17.3391 15.1082 17.1669 14.9325 17.1305C14.8975 17.1232 14.8617 17.1174 14.8249 17.114C14.7837 17.1095 14.7472 17.1074 14.7166 17.1074C14.4262 17.1074 14.1622 17.2257 13.9704 17.4171L13.9697 17.4168C13.7789 17.6079 13.6606 17.8719 13.6606 18.1634C13.6606 18.3432 13.8064 18.489 13.9865 18.489C14.1663 18.489 14.3124 18.3432 14.3124 18.1634C14.3124 18.0517 14.3574 17.9506 14.4306 17.8774L14.2003 17.6471L14.4306 17.876C14.5028 17.8039 14.6042 17.7592 14.7166 17.7592C14.7359 17.7592 14.7503 17.7595 14.7589 17.7605C14.772 17.7616 14.7861 17.764 14.8002 17.7671Z" fill="#FCF4E7"/>
<path d="M15.3643 15.4705C15.3732 15.65 15.5262 15.7878 15.7053 15.7785C15.8844 15.7696 16.0226 15.6166 16.0133 15.4375C16.0116 15.4018 16.0074 15.365 16.0016 15.3282C15.9951 15.2884 15.9878 15.2526 15.9792 15.2213C15.9043 14.9405 15.7214 14.7164 15.4866 14.5809C15.2526 14.4458 14.9672 14.3994 14.6867 14.4747C14.5131 14.5211 14.41 14.6995 14.4564 14.8731C14.5028 15.0467 14.6812 15.1498 14.8548 15.1034C14.9638 15.0742 15.0738 15.0917 15.1632 15.1433C15.2519 15.1945 15.3216 15.2808 15.3505 15.3894C15.3553 15.4066 15.3584 15.4204 15.3598 15.43C15.3619 15.4427 15.3636 15.4564 15.3643 15.4705Z" fill="#FCF4E7"/>
<path d="M18.2143 11.0908C18.39 11.1272 18.5622 11.0145 18.5987 10.8388C18.6351 10.6632 18.5223 10.491 18.3467 10.4545C18.3116 10.447 18.2759 10.4415 18.2391 10.4377C18.1978 10.4336 18.1614 10.4312 18.1305 10.4312C17.839 10.4312 17.575 10.5494 17.3838 10.7405C17.377 10.7477 17.3701 10.755 17.3639 10.7625C17.1845 10.9523 17.0745 11.2073 17.0745 11.4872C17.0745 11.6669 17.2206 11.813 17.4003 11.813C17.5805 11.813 17.7262 11.6669 17.7262 11.4872C17.7262 11.3809 17.7661 11.285 17.8314 11.2139C17.8359 11.2097 17.8403 11.2056 17.8448 11.2015C17.918 11.1283 18.0191 11.0829 18.1305 11.0829C18.1501 11.0829 18.1642 11.0832 18.1727 11.0843C18.1862 11.0857 18.1999 11.0877 18.2143 11.0908Z" fill="#FCF4E7"/>
<path d="M18.6433 12.4892C18.4677 12.5256 18.3549 12.6979 18.3914 12.8735C18.4278 13.0492 18.6 13.1619 18.776 13.1255C18.7901 13.1224 18.8039 13.1203 18.8173 13.1189C18.8259 13.1179 18.84 13.1176 18.8595 13.1176C18.972 13.1176 19.073 13.1623 19.1452 13.2348L19.3759 13.0055L19.1452 13.2358C19.1497 13.2403 19.1541 13.2444 19.1586 13.2485C19.2239 13.3197 19.2638 13.4159 19.2638 13.5218C19.2638 13.7016 19.4095 13.8477 19.5897 13.8477C19.7695 13.8477 19.9155 13.7016 19.9155 13.5218C19.9155 13.242 19.8055 12.9873 19.6265 12.7975C19.6199 12.79 19.6134 12.7824 19.6062 12.7752L19.6055 12.7759L19.6048 12.7752C19.4133 12.5841 19.1497 12.4658 18.8595 12.4658C18.8286 12.4658 18.7925 12.4682 18.7509 12.4724C18.7145 12.4761 18.6784 12.4816 18.6433 12.4892Z" fill="#FCF4E7"/>
<path d="M19.3301 15.4189C19.1541 15.4553 19.0413 15.6275 19.0778 15.8032C19.1145 15.9789 19.2868 16.0916 19.4624 16.0552C19.4765 16.0524 19.4906 16.05 19.5037 16.0486C19.5123 16.0479 19.5264 16.0473 19.546 16.0473C19.6584 16.0473 19.7594 16.0919 19.832 16.1645L20.0623 15.9352L19.8316 16.1659H19.832C19.9048 16.2387 19.9502 16.3401 19.9502 16.4515C19.9502 16.6316 20.096 16.7774 20.2761 16.7774C20.4559 16.7774 20.602 16.6316 20.602 16.4515C20.602 16.16 20.4837 15.896 20.2926 15.7052V15.7049L20.2919 15.7056C20.1004 15.5141 19.8364 15.3955 19.546 15.3955C19.515 15.3955 19.4789 15.3979 19.4373 15.402C19.4009 15.4058 19.3648 15.4117 19.3301 15.4189Z" fill="#FCF4E7"/>
<path d="M18.0664 17.1305C17.8908 17.1669 17.778 17.3391 17.8145 17.5148C17.8509 17.6904 18.0231 17.8035 18.1988 17.7671C18.2132 17.764 18.227 17.7616 18.2404 17.7602C18.249 17.7595 18.2631 17.7592 18.2826 17.7592C18.3951 17.7592 18.4961 17.8039 18.5683 17.876L18.7986 17.6471L18.5683 17.8774C18.6415 17.9506 18.6869 18.0517 18.6869 18.1634C18.6869 18.3432 18.8326 18.489 19.0128 18.489C19.1926 18.489 19.3386 18.3432 19.3386 18.1634C19.3386 17.8719 19.2201 17.6079 19.0293 17.4168L19.0286 17.4171C18.8368 17.2257 18.5728 17.1074 18.2826 17.1074C18.2517 17.1074 18.2156 17.1095 18.174 17.114C18.1376 17.1174 18.1015 17.1232 18.0664 17.1305Z" fill="#FCF4E7"/>
<path d="M16.9858 15.4374C16.9768 15.6165 17.1147 15.7694 17.2938 15.7784C17.4732 15.7877 17.6258 15.6498 17.6351 15.4704C17.6358 15.4563 17.6372 15.4425 17.6392 15.4298C17.6406 15.4202 17.6437 15.4064 17.6485 15.3893C17.6774 15.2806 17.7472 15.1944 17.8359 15.1431C17.9252 15.0916 18.0352 15.074 18.1442 15.1033C18.3178 15.1497 18.4962 15.0465 18.5426 14.8729C18.589 14.6994 18.4859 14.5209 18.3123 14.4745C18.0318 14.3996 17.7468 14.4457 17.5127 14.5808C17.278 14.7162 17.0951 14.9403 17.0198 15.2212C17.0115 15.2524 17.004 15.2882 16.9975 15.3281C16.9916 15.3649 16.9878 15.4016 16.9858 15.4374Z" fill="#FCF4E7"/>
<path d="M12.8583 22.8976C12.8583 23.0777 13.0041 23.2234 13.1838 23.2234C13.364 23.2234 13.5097 23.0777 13.5097 22.8976C13.5097 19.5505 12.5348 18.5399 11.5998 17.5712C10.8271 16.7702 10.0842 16.0009 10.0842 13.6174C10.0842 11.846 10.8023 10.2421 11.9632 9.08122C13.124 7.92038 14.728 7.20229 16.4997 7.20229C18.271 7.20229 19.8749 7.92038 21.0358 9.08122C22.1966 10.2421 22.9147 11.846 22.9147 13.6174C22.9147 16.0009 22.1722 16.7702 21.3991 17.5715C20.4641 18.5402 19.4892 19.5505 19.4892 22.8976C19.4892 23.0777 19.635 23.2234 19.8151 23.2234C19.9949 23.2234 20.141 23.0777 20.141 22.8976C20.141 19.811 21.0224 18.8977 21.8677 18.0218C22.7339 17.1239 23.5665 16.2615 23.5665 13.6174C23.5665 11.6659 22.7755 9.89901 21.4964 8.62026C20.218 7.34151 18.4508 6.55054 16.4997 6.55054C14.5482 6.55054 12.7813 7.34151 11.5026 8.62026C10.2238 9.89901 9.4325 11.6659 9.4325 13.6174C9.4325 16.2615 10.2651 17.1239 11.1317 18.0218C11.9766 18.8977 12.8583 19.811 12.8583 22.8976Z" fill="#FCF4E7"/>
<path d="M13.2917 24.9301C13.4715 24.9301 13.6176 24.7841 13.6176 24.6043C13.6176 24.4241 13.4715 24.2784 13.2917 24.2784C13.147 24.2784 13.0154 24.2189 12.9195 24.123C12.8239 24.0275 12.7644 23.8955 12.7644 23.7511C12.7644 23.6064 12.8239 23.4744 12.9195 23.3788C13.0154 23.2829 13.147 23.2234 13.2917 23.2234H19.7071C19.8519 23.2234 19.9839 23.2829 20.0794 23.3788C20.1753 23.4744 20.2345 23.6064 20.2345 23.7511C20.2345 23.8955 20.1753 24.0275 20.0794 24.123C19.9839 24.2189 19.8519 24.2784 19.7071 24.2784C19.5274 24.2784 19.3813 24.4241 19.3813 24.6043C19.3813 24.7841 19.5274 24.9301 19.7071 24.9301C20.0316 24.9301 20.3266 24.7975 20.5404 24.584C20.7539 24.3705 20.8862 24.0756 20.8862 23.7511C20.8862 23.4262 20.7539 23.1316 20.5404 22.9178C20.3266 22.7044 20.0316 22.572 19.7071 22.572H13.2917C12.9672 22.572 12.6723 22.7044 12.4588 22.9178C12.245 23.1316 12.1127 23.4262 12.1127 23.7511C12.1127 24.0756 12.245 24.3705 12.4588 24.584C12.6723 24.7975 12.9672 24.9301 13.2917 24.9301Z" fill="#FCF4E7"/>
<path d="M13.4289 26.6364C13.609 26.6364 13.7548 26.4904 13.7548 26.3106C13.7548 26.1308 13.609 25.9847 13.4289 25.9847H12.705C12.5606 25.9847 12.4286 25.9252 12.333 25.8293C12.2371 25.7338 12.1777 25.6021 12.1777 25.4574C12.1777 25.3127 12.2371 25.1807 12.333 25.0851C12.4286 24.9895 12.5606 24.9301 12.705 24.9301H20.2939C20.4387 24.9301 20.5703 24.9895 20.6659 25.0851C20.7618 25.1807 20.8212 25.3127 20.8212 25.4574C20.8212 25.6021 20.7618 25.7338 20.6659 25.8293L20.6528 25.8434C20.559 25.9307 20.4328 25.9847 20.2939 25.9847H19.5703C19.3906 25.9847 19.2445 26.1308 19.2445 26.3106C19.2445 26.4904 19.3906 26.6364 19.5703 26.6364H20.2939C20.6067 26.6364 20.8931 26.512 21.1052 26.3102C21.1127 26.3037 21.12 26.2972 21.1268 26.2903C21.3403 26.0768 21.473 25.7819 21.473 25.4574C21.473 25.1325 21.3403 24.8379 21.1268 24.6241C20.9134 24.4107 20.6184 24.2783 20.2939 24.2783H12.705C12.3805 24.2783 12.0855 24.4107 11.8721 24.6241C11.6586 24.8379 11.5262 25.1325 11.5262 25.4574C11.5262 25.7819 11.6586 26.0768 11.8721 26.2903C12.0855 26.5038 12.3805 26.6364 12.705 26.6364H13.4289Z" fill="#FCF4E7"/>
<path d="M13.4551 25.9849H19.5439C19.8688 25.9849 20.1633 26.1176 20.3772 26.331C20.5906 26.5445 20.723 26.8394 20.723 27.1639C20.723 27.4884 20.5906 27.7834 20.3772 27.9968C20.1633 28.2106 19.8688 28.343 19.5439 28.343H13.4551C13.1302 28.343 12.8356 28.2106 12.6218 27.9968C12.4083 27.7834 12.276 27.4884 12.276 27.1639C12.276 26.8394 12.4083 26.5445 12.6218 26.331C12.8356 26.1176 13.1302 25.9849 13.4551 25.9849ZM19.5439 26.6366H13.4551C13.3103 26.6366 13.1783 26.6961 13.0828 26.7916C12.9872 26.8876 12.9278 27.0192 12.9278 27.1639C12.9278 27.3086 12.9872 27.4403 13.0828 27.5362C13.1783 27.6318 13.3103 27.6912 13.4551 27.6912H19.5443C19.6886 27.6912 19.8206 27.6318 19.9162 27.5362C20.0121 27.4403 20.0716 27.3086 20.0716 27.1639C20.0716 27.0192 20.0121 26.8876 19.9162 26.7916C19.8206 26.6961 19.6886 26.6366 19.5443 26.6366H19.5439Z" fill="#FCF4E7"/>
<mask id="mask0_69_3952" style="mask-type:luminance" maskUnits="userSpaceOnUse" x="14" y="27" width="5" height="3">
<path d="M14.432 27.6321H18.568V29.7183H14.432V27.6321Z" fill="white"/>
</mask>
<g mask="url(#mask0_69_3952)">
<path d="M18.5487 28.017C18.5487 27.8373 18.4026 27.6912 18.2229 27.6912C18.0427 27.6912 17.897 27.8373 17.897 28.017V28.6887C17.897 28.7843 17.8585 28.8706 17.7963 28.9324L18.0255 29.1628L17.7952 28.9324L17.7829 28.9455C17.722 29.0005 17.6405 29.0342 17.5512 29.0342H15.4478C15.3529 29.0342 15.2666 28.9953 15.2037 28.9324C15.1411 28.8699 15.1019 28.7833 15.1019 28.6887V28.017C15.1019 27.8373 14.9562 27.6912 14.7761 27.6912C14.5963 27.6912 14.4502 27.8373 14.4502 28.017V28.6887C14.4502 28.9634 14.5626 29.2129 14.7431 29.3934C14.9235 29.5739 15.1731 29.6859 15.4478 29.6859H17.5512C17.8141 29.6859 18.0548 29.5821 18.2339 29.4133C18.2414 29.4072 18.2486 29.4003 18.2559 29.3934L18.2552 29.3927L18.2559 29.392C18.4367 29.2109 18.5487 28.9617 18.5487 28.6887V28.017Z" fill="#FCF4E7"/>
</g>
<path d="M16.1738 22.8978C16.1738 23.0776 16.3196 23.2233 16.4997 23.2233C16.6795 23.2233 16.8256 23.0776 16.8256 22.8978V18.2036C16.8256 18.0234 16.6795 17.8777 16.4997 17.8777C16.3196 17.8777 16.1738 18.0234 16.1738 18.2036V22.8978Z" fill="#FCF4E7"/>
<mask id="mask1_69_3952" style="mask-type:luminance" maskUnits="userSpaceOnUse" x="16" y="1" width="1" height="4">
<path d="M16.104 1.86621H16.896V4.57599H16.104V1.86621Z" fill="white"/>
</mask>
<g mask="url(#mask1_69_3952)">
<path d="M16.8256 2.20576C16.8256 2.02563 16.6795 1.87988 16.4997 1.87988C16.3196 1.87988 16.1738 2.02563 16.1738 2.20576V4.24213C16.1738 4.42226 16.3196 4.56801 16.4997 4.56801C16.6795 4.56801 16.8256 4.42226 16.8256 4.24213V2.20576Z" fill="#FCF4E7"/>
</g>
<path d="M22.8288 3.98925C22.9189 3.83387 22.8656 3.63484 22.7106 3.54512C22.5552 3.45506 22.3561 3.508 22.2661 3.66337L21.2479 5.42715C21.1582 5.58218 21.2111 5.78122 21.3661 5.87128C21.5215 5.96134 21.7206 5.90806 21.8106 5.75303L22.8288 3.98925Z" fill="#FCF4E7"/>
<path d="M27.1377 8.53509C27.2931 8.44503 27.346 8.246 27.2563 8.09097C27.1662 7.93559 26.9672 7.88265 26.8118 7.97237L25.0484 8.9909C24.893 9.08062 24.8401 9.27965 24.9298 9.43503C25.0198 9.5904 25.2189 9.64334 25.3742 9.55328L27.1377 8.53509Z" fill="#FCF4E7"/>
<mask id="mask2_69_3952" style="mask-type:luminance" maskUnits="userSpaceOnUse" x="26" y="13" width="3" height="2">
<path d="M26.224 13.9041H28.8953V14.6961H26.224V13.9041Z" fill="white"/>
</mask>
<g mask="url(#mask2_69_3952)">
<path d="M28.5955 14.6276C28.7753 14.6276 28.9214 14.4815 28.9214 14.3017C28.9214 14.1216 28.7753 13.9758 28.5955 13.9758H26.5588C26.379 13.9758 26.2329 14.1216 26.2329 14.3017C26.2329 14.4815 26.379 14.6276 26.5588 14.6276H28.5955Z" fill="#FCF4E7"/>
</g>
<mask id="mask3_69_3952" style="mask-type:luminance" maskUnits="userSpaceOnUse" x="4" y="13" width="3" height="2">
<path d="M4.07922 13.9041H6.77594V14.6961H4.07922V13.9041Z" fill="white"/>
</mask>
<g mask="url(#mask3_69_3952)">
<path d="M4.40388 13.9758C4.22375 13.9758 4.078 14.1216 4.078 14.3017C4.078 14.4815 4.22375 14.6276 4.40388 14.6276H6.44025C6.62003 14.6276 6.76613 14.4815 6.76613 14.3017C6.76613 14.1216 6.62003 13.9758 6.44025 13.9758H4.40388Z" fill="#FCF4E7"/>
</g>
<path d="M6.18712 7.97237C6.03175 7.88265 5.83272 7.93559 5.743 8.09097C5.65294 8.246 5.70587 8.44503 5.86125 8.53509L7.62503 9.55328C7.78006 9.64334 7.97909 9.5904 8.06915 9.43503C8.15887 9.27965 8.10594 9.08062 7.9509 8.9909L6.18712 7.97237Z" fill="#FCF4E7"/>
<path d="M10.733 3.66337C10.6429 3.508 10.4439 3.45506 10.2888 3.54512C10.1335 3.63484 10.0805 3.83387 10.1702 3.98925L11.1888 5.75303C11.2785 5.90806 11.4775 5.96134 11.6329 5.87128C11.7883 5.78122 11.8412 5.58218 11.7512 5.42715L10.733 3.66337Z" fill="#FCF4E7"/>
<path d="M17.7461 9.1853C17.392 9.1853 17.063 9.2984 16.7935 9.49021C16.5175 9.68752 16.3044 9.96733 16.192 10.2936C16.1789 10.3314 16.1731 10.3699 16.1738 10.4077V18.2036C16.1738 18.2672 16.1923 18.3266 16.224 18.3768C16.3714 18.6477 16.589 18.8746 16.8516 19.0331C17.1129 19.1908 17.4192 19.2819 17.7461 19.2819C18.0812 19.2819 18.3961 19.185 18.6639 19.0172C18.888 18.8773 19.0774 18.6876 19.2173 18.4641C19.593 18.3951 19.9268 18.2046 20.1757 17.9351C20.4614 17.6261 20.636 17.2129 20.636 16.7595C20.636 16.7079 20.6332 16.6543 20.6281 16.5986C20.7975 16.4601 20.9402 16.2896 21.0471 16.0964C21.186 15.8465 21.265 15.5598 21.265 15.2566C21.265 15.0466 21.2272 14.8445 21.1581 14.6568C21.1169 14.5457 21.0646 14.4399 21.0028 14.3405C21.0636 14.2422 21.1152 14.1374 21.1554 14.0274C21.2241 13.8404 21.2616 13.6389 21.2616 13.4303C21.2616 13.2055 21.2186 12.9903 21.1406 12.793C21.0921 12.6702 21.0296 12.5544 20.9553 12.4468C21.0045 12.3578 21.0464 12.2643 21.0794 12.167C21.1389 11.9906 21.1715 11.8033 21.1715 11.6098C21.1715 11.132 20.9773 10.6988 20.6635 10.385L20.4332 10.6143L20.6638 10.384L20.6576 10.3778C20.3441 10.0677 19.9131 9.8759 19.4377 9.8759C19.3335 9.8759 19.2311 9.88518 19.1317 9.90305C19.1235 9.90443 19.1152 9.90615 19.107 9.90821C18.9832 9.72568 18.8234 9.56927 18.6378 9.4493C18.38 9.28224 18.0733 9.1853 17.7461 9.1853ZM17.1706 10.0199C17.3319 9.90477 17.5309 9.83705 17.7461 9.83705C17.9458 9.83705 18.1304 9.8948 18.284 9.99415C18.4398 10.0949 18.5659 10.2386 18.6453 10.4084C18.7103 10.573 18.8952 10.6562 19.062 10.5947C19.1159 10.5747 19.1689 10.5589 19.2215 10.5479C19.2297 10.5472 19.238 10.5459 19.2462 10.5445C19.3084 10.5335 19.3724 10.5276 19.4377 10.5276C19.7357 10.5276 20.0055 10.648 20.2011 10.8429L20.2029 10.8446C20.3981 11.0402 20.5198 11.3104 20.5198 11.6098C20.5198 11.7332 20.4999 11.8504 20.4634 11.958C20.427 12.0646 20.3751 12.1632 20.3105 12.2509C20.2001 12.3756 20.2011 12.5661 20.317 12.6898L20.5545 12.4667L20.318 12.6898C20.4095 12.7875 20.4837 12.9033 20.5346 13.0322C20.583 13.1549 20.6099 13.2893 20.6099 13.4303C20.6099 13.5623 20.5868 13.6877 20.5445 13.8032C20.5023 13.9181 20.4411 14.0239 20.3651 14.1164C20.251 14.236 20.2438 14.4247 20.3538 14.5533C20.4363 14.6492 20.5023 14.7596 20.547 14.8809C20.5899 14.9971 20.6136 15.1239 20.6136 15.2566C20.6136 15.4484 20.5648 15.6272 20.4796 15.7808C20.393 15.9369 20.2685 16.0696 20.1186 16.1662C19.9952 16.2346 19.9261 16.3779 19.9581 16.5226L19.9595 16.5223C19.9664 16.5526 19.9719 16.5856 19.9763 16.6206L19.9777 16.6406C19.9815 16.676 19.9842 16.7158 19.9842 16.7595C19.9842 17.0434 19.8753 17.3019 19.6972 17.4944C19.5209 17.6856 19.2761 17.8127 19.0025 17.8375C18.8856 17.8413 18.7746 17.9083 18.7199 18.0207L19.0128 18.163L18.7203 18.0217C18.6309 18.2056 18.4913 18.3603 18.3201 18.4676C18.1555 18.5707 17.9589 18.6302 17.7461 18.6302C17.5412 18.6302 17.3501 18.5735 17.1875 18.4755C17.0404 18.3868 16.9159 18.2641 16.8255 18.1187V10.4575C16.897 10.2805 17.0177 10.1289 17.1706 10.0199Z" fill="#FCF4E7"/>
</svg>
