<svg width="37" height="39" viewBox="0 0 37 39" fill="none" xmlns="http://www.w3.org/2000/svg">
<rect x="1.81079" y="1" width="33.5847" height="37" rx="16.7924" fill="#FFD662" stroke="black" stroke-width="2"/>
<path d="M18.8727 23.3587C19.8782 23.3587 20.861 23.0493 21.697 22.4697C22.533 21.8901 23.1846 21.0663 23.5693 20.1025C23.9541 19.1386 24.0548 18.078 23.8586 17.0548C23.6625 16.0316 23.1783 15.0917 22.4674 14.354C21.7564 13.6163 20.8506 13.114 19.8645 12.9104C18.8784 12.7069 17.8563 12.8114 16.9274 13.2106C15.9985 13.6098 15.2045 14.2859 14.6459 15.1534C14.0874 16.0208 13.7892 17.0406 13.7892 18.0839C13.7892 19.4829 14.3248 20.8245 15.2781 21.8137C16.2315 22.803 17.5245 23.3587 18.8727 23.3587ZM26.4981 36.5457C26.8351 36.5457 27.1584 36.4068 27.3967 36.1595C27.635 35.9122 27.7689 35.5768 27.7689 35.227C27.7689 32.7788 26.8317 30.4309 25.1633 28.6998C23.4949 26.9686 21.2322 25.9961 18.8727 25.9961C16.5133 25.9961 14.2506 26.9686 12.5822 28.6998C10.9138 30.4309 9.97656 32.7788 9.97656 35.227C9.97656 35.5768 10.1105 35.9122 10.3488 36.1595C10.5871 36.4068 10.9104 36.5457 11.2474 36.5457H26.4981Z" fill="#252E49"/>
</svg>
