<svg width="22" height="25" viewBox="0 0 22 25" fill="none" xmlns="http://www.w3.org/2000/svg">
<mask id="mask0_69_3939" style="mask-type:luminance" maskUnits="userSpaceOnUse" x="1" y="2" width="19" height="21">
<path d="M1.24365 2.06665H19.2837V22.4667H1.24365V2.06665Z" fill="white"/>
</mask>
<g mask="url(#mask0_69_3939)">
<path d="M16.2043 14.7459C15.353 14.11 14.3557 13.6399 13.3095 13.3084C14.7448 12.2027 15.6692 10.3503 15.6692 8.22194C15.6692 4.82168 13.2366 2.08496 10.2687 2.08496C7.30099 2.08496 4.86815 4.84928 4.86815 8.22194C4.86815 10.3227 5.8169 12.1748 7.22788 13.3084C3.99251 14.3311 1.24365 16.9019 1.24365 20.3298V22.4032H19.294V20.3298C19.294 18.229 18.1749 16.1831 16.2043 14.7459ZM10.2687 4.18574C12.2393 4.18574 13.8448 6.01022 13.8448 8.24954C13.8448 10.4886 12.2393 12.3131 10.2687 12.3131C8.29832 12.3131 6.69278 10.4886 6.69278 8.24954C6.69278 6.01022 8.29832 4.18574 10.2687 4.18574ZM3.06805 20.3298C3.06805 17.3443 6.64419 14.9115 10.2687 14.9115C13.8934 14.9115 17.4693 17.3443 17.4693 20.3298H3.06805Z" fill="#202C4D"/>
</g>
</svg>
