<svg width="22" height="24" viewBox="0 0 22 24" fill="none" xmlns="http://www.w3.org/2000/svg">
<path d="M6.87016 7.15923C6.87729 7.17016 6.88496 7.18043 6.89319 7.19036L10.755 11.8554C10.814 11.9266 10.8894 11.9667 10.9667 11.9753C10.9782 11.9767 10.9897 11.9773 11.0012 11.9773C11.0051 11.9773 11.0089 11.9773 11.0127 11.9773C11.1002 11.9737 11.1833 11.9296 11.2447 11.8554L15.1068 7.19036C15.1148 7.18076 15.1224 7.17049 15.1296 7.15989L15.8089 6.33889C17.0079 4.89061 17.0079 2.53423 15.8089 1.08596C14.6103 -0.361986 12.6594 -0.361986 11.4605 1.08596L10.9999 1.64235L10.5395 1.08596C9.34063 -0.361986 7.38997 -0.361986 6.19106 1.08596C4.99215 2.53423 4.99215 4.89061 6.19106 6.33889L6.87016 7.15923ZM6.67688 1.67315C7.12787 1.12835 7.72746 0.828294 8.36517 0.828294C9.00314 0.828294 9.60273 1.12835 10.0537 1.67282L10.757 2.52264C10.8214 2.6008 10.9088 2.64451 11.0001 2.64451C11.0912 2.64451 11.1786 2.6008 11.243 2.52264L11.9465 1.67315C12.3975 1.12835 12.9971 0.828294 13.6348 0.828294C14.2725 0.828294 14.8721 1.12835 15.3231 1.67315C16.2542 2.79752 16.2542 4.62732 15.3231 5.75203L14.6196 6.60185C14.6114 6.61178 14.6037 6.62205 14.5966 6.63265L11.0001 10.9771L7.40368 6.63265C7.39628 6.62205 7.3886 6.61178 7.38038 6.60185L6.67688 5.75203C5.74609 4.62732 5.74609 2.79752 6.67688 1.67315ZM21.8995 11.3159C21.2801 10.5681 20.3485 10.3313 19.537 10.6993C19.2889 10.5863 19.0235 10.5271 18.7504 10.5271C18.1599 10.5271 17.6039 10.8026 17.1839 11.3034L14.627 13.9194C14.6281 13.8863 14.6292 13.8531 14.6292 13.82C14.6292 13.5905 14.4754 13.4047 14.2857 13.4047H6.39339C5.26521 13.4047 4.20476 13.9356 3.40694 14.899L0.100549 18.8931C-0.0335163 19.0554 -0.0335163 19.318 0.100549 19.48C0.167719 19.5611 0.255725 19.6015 0.343731 19.6015C0.431463 19.6015 0.519469 19.5611 0.586638 19.48L3.89303 15.4862C4.56089 14.6791 5.4489 14.235 6.39339 14.235H13.901C13.7459 15.0116 13.166 15.5909 12.476 15.5909H8.27414C8.08415 15.5909 7.93034 15.7767 7.93034 16.0059C7.93034 16.235 8.08415 16.4208 8.27414 16.4208H12.476C13.0846 16.4208 13.6348 16.1138 14.0269 15.6217L17.6384 11.9263C17.6456 11.9187 17.6527 11.9111 17.6593 11.9031C18.1774 11.2769 18.9755 11.1901 19.5715 11.6425L14.1031 18.2483C13.5948 18.8623 12.919 19.2005 12.2001 19.2005H6.81039C6.18311 19.2005 5.59339 19.4956 5.14979 20.0314L2.45094 23.2913C2.31688 23.4535 2.31688 23.7162 2.45094 23.8785C2.51811 23.9593 2.60612 24 2.69385 24C2.78185 24 2.86986 23.9593 2.93703 23.8785L5.63561 20.6183C5.94952 20.2394 6.36652 20.0307 6.81039 20.0307H13.7719C14.6742 20.0307 15.5227 19.6062 16.1607 18.8352L21.8995 11.9031C22.0335 11.7408 22.0335 11.4782 21.8995 11.3159ZM15.6749 18.2483C15.296 18.7057 14.8244 19.0097 14.3112 19.1352C14.4074 19.0418 14.5004 18.9421 14.5889 18.8352L20.3277 11.9031C20.4505 11.7544 20.4606 11.5219 20.3584 11.3593C20.6342 11.3676 20.9062 11.464 21.1428 11.6428L15.6749 18.2483Z" fill="#FCF4E7"/>
</svg>
