<svg width="29" height="30" viewBox="0 0 29 30" fill="none" xmlns="http://www.w3.org/2000/svg">
<path d="M8.72857 13.4994C8.44219 13.4994 8.16224 13.5874 7.92413 13.7522C7.68601 13.917 7.50042 14.1513 7.39083 14.4253C7.28124 14.6994 7.25256 15.001 7.30843 15.292C7.3643 15.5829 7.50221 15.8502 7.70471 16.0599C7.90721 16.2697 8.16521 16.4126 8.44609 16.4704C8.72696 16.5283 9.0181 16.4986 9.28268 16.3851C9.54726 16.2716 9.7734 16.0793 9.9325 15.8327C10.0916 15.586 10.1765 15.296 10.1765 14.9993C10.1765 14.6015 10.024 14.22 9.75243 13.9387C9.48088 13.6574 9.11259 13.4994 8.72857 13.4994ZM14.5204 13.4994C14.234 13.4994 13.9541 13.5874 13.716 13.7522C13.4778 13.917 13.2923 14.1513 13.1827 14.4253C13.0731 14.6994 13.0444 15.001 13.1003 15.292C13.1561 15.5829 13.294 15.8502 13.4965 16.0599C13.699 16.2697 13.957 16.4126 14.2379 16.4704C14.5188 16.5283 14.8099 16.4986 15.0745 16.3851C15.3391 16.2716 15.5652 16.0793 15.7243 15.8327C15.8834 15.586 15.9684 15.296 15.9684 14.9993C15.9684 14.6015 15.8158 14.22 15.5443 13.9387C15.2727 13.6574 14.9044 13.4994 14.5204 13.4994ZM20.3122 13.4994C20.0259 13.4994 19.7459 13.5874 19.5078 13.7522C19.2697 13.917 19.0841 14.1513 18.9745 14.4253C18.8649 14.6994 18.8362 15.001 18.8921 15.292C18.948 15.5829 19.0859 15.8502 19.2884 16.0599C19.4909 16.2697 19.7489 16.4126 20.0298 16.4704C20.3106 16.5283 20.6018 16.4986 20.8664 16.3851C21.1309 16.2716 21.3571 16.0793 21.5162 15.8327C21.6753 15.586 21.7602 15.296 21.7602 14.9993C21.7602 14.6015 21.6077 14.22 21.3361 13.9387C21.0646 13.6574 20.6963 13.4994 20.3122 13.4994ZM14.5204 0C12.6189 0 10.736 0.387969 8.97931 1.14176C7.22256 1.89554 5.62634 3.00039 4.28179 4.3932C1.56634 7.20613 0.0408127 11.0213 0.0408127 14.9993C0.0281544 18.4629 1.18585 21.8218 3.3132 24.4939L0.417282 27.4938C0.216367 27.7047 0.080264 27.9726 0.0261478 28.2635C-0.0279684 28.5545 0.00232672 28.8556 0.113211 29.1287C0.233475 29.3986 0.428437 29.6254 0.673349 29.7803C0.918261 29.9352 1.20208 30.0112 1.48877 29.9987H14.5204C18.3606 29.9987 22.0436 28.4184 24.759 25.6055C27.4745 22.7925 29 18.9774 29 14.9993C29 11.0213 27.4745 7.20613 24.759 4.3932C22.0436 1.58028 18.3606 0 14.5204 0ZM14.5204 26.9988H4.97835L6.32496 25.6039C6.46177 25.465 6.57061 25.2993 6.64518 25.1165C6.71974 24.9337 6.75855 24.7374 6.75934 24.5389C6.7539 24.1433 6.59777 23.7659 6.32496 23.489C4.42898 21.5271 3.24829 18.945 2.98407 16.1825C2.71984 13.42 3.38841 10.648 4.87588 8.33891C6.36334 6.02979 8.57768 4.32635 11.1416 3.5188C13.7056 2.71126 16.4605 2.84958 18.937 3.9102C21.4135 4.97081 23.4584 6.88811 24.7234 9.33542C25.9883 11.7827 26.3949 14.6087 25.874 17.3317C25.3531 20.0548 23.9369 22.5066 21.8667 24.2693C19.7964 26.032 17.2002 26.9966 14.5204 26.9988Z" fill="#202C4D"/>
</svg>
