<svg width="29" height="27" viewBox="0 0 29 27" fill="none" xmlns="http://www.w3.org/2000/svg">
<path d="M14.5 0C6.48618 0 0 6.03886 0 13.5C0 20.9611 6.51123 27 14.5 27C22.5138 27 29 20.9378 29 13.5C29 6.03886 22.5138 0 14.5 0ZM14.5 24.342C8.08895 24.342 2.85492 19.4689 2.85492 13.5C2.85492 7.53109 8.08895 2.65803 14.5 2.65803C20.9111 2.65803 26.1451 7.53109 26.1451 13.5C26.1451 19.4689 20.9111 24.342 14.5 24.342Z" fill="#373737"/>
<path d="M13.8739 9.53623C14.9389 9.53623 15.8022 8.73243 15.8022 7.74089C15.8022 6.74936 14.9389 5.94556 13.8739 5.94556C12.8089 5.94556 11.9456 6.74936 11.9456 7.74089C11.9456 8.73243 12.8089 9.53623 13.8739 9.53623Z" fill="#373737"/>
<path d="M12.5968 11.1683C12.0458 11.2615 11.6451 11.7045 11.6451 12.2175C11.6451 12.8237 12.171 13.29 12.7971 13.29H12.9223V19.2356H12.2963C11.7453 19.2356 11.3196 19.6553 11.3196 20.145C11.3196 20.6579 11.7704 21.0543 12.2963 21.0543H16.7039C17.2548 21.0543 17.6805 20.6346 17.6805 20.145C17.6805 19.632 17.2298 19.2356 16.7039 19.2356H16.1028V11.6346C16.1028 11.0517 15.5268 10.6087 14.9258 10.7253C13.899 10.9118 12.6469 11.145 12.5968 11.1683Z" fill="#373737"/>
</svg>
