<svg width="68" height="70" viewBox="0 0 68 70" fill="none" xmlns="http://www.w3.org/2000/svg">
<g clip-path="url(#clip0_67_2160)">
<path fill-rule="evenodd" clip-rule="evenodd" d="M34 70C43.0174 70 51.6654 66.3125 58.0416 59.7487C64.4179 53.185 68 44.2826 68 35C68 25.7174 64.4179 16.815 58.0416 10.2513C51.6654 3.68749 43.0174 0 34 0C24.9826 0 16.3346 3.68749 9.95837 10.2513C3.58213 16.815 0 25.7174 0 35C0 44.2826 3.58213 53.185 9.95837 59.7487C16.3346 66.3125 24.9826 70 34 70ZM38.25 21.875C38.25 23.0353 37.8022 24.1481 37.0052 24.9686C36.2082 25.7891 35.1272 26.25 34 26.25C32.8728 26.25 31.7918 25.7891 30.9948 24.9686C30.1978 24.1481 29.75 23.0353 29.75 21.875C29.75 20.7147 30.1978 19.6019 30.9948 18.7814C31.7918 17.9609 32.8728 17.5 34 17.5C35.1272 17.5 36.2082 17.9609 37.0052 18.7814C37.8022 19.6019 38.25 20.7147 38.25 21.875ZM29.75 30.625C28.9046 30.625 28.0939 30.9707 27.4961 31.5861C26.8983 32.2014 26.5625 33.036 26.5625 33.9062C26.5625 34.7765 26.8983 35.6111 27.4961 36.2264C28.0939 36.8418 28.9046 37.1875 29.75 37.1875H30.8125V45.9375H26.5625C25.7171 45.9375 24.9064 46.2832 24.3086 46.8986C23.7108 47.5139 23.375 48.3485 23.375 49.2188C23.375 50.089 23.7108 50.9236 24.3086 51.5389C24.9064 52.1543 25.7171 52.5 26.5625 52.5H41.4375C42.2829 52.5 43.0936 52.1543 43.6914 51.5389C44.2892 50.9236 44.625 50.089 44.625 49.2188C44.625 48.3485 44.2892 47.5139 43.6914 46.8986C43.0936 46.2832 42.2829 45.9375 41.4375 45.9375H37.1875V30.625H29.75Z" fill="#7994C4"/>
</g>
<defs>
<clipPath id="clip0_67_2160">
<rect width="68" height="70" fill="white"/>
</clipPath>
</defs>
</svg>
