<svg width="31" height="30" viewBox="0 0 31 30" fill="none" xmlns="http://www.w3.org/2000/svg">
<path d="M0.5 25.5V22.5H4.25V12C4.25 9.925 5.03125 8.0815 6.59375 6.4695C8.15625 4.8575 10.1875 3.801 12.6875 3.3V2.25C12.6875 1.625 12.9613 1.094 13.5087 0.657003C14.0563 0.220003 14.72 0.00100341 15.5 3.40909e-06C16.28 -0.000996591 16.9444 0.218003 17.4931 0.657003C18.0419 1.096 18.315 1.627 18.3125 2.25V3.3C20.8125 3.8 22.8438 4.8565 24.4063 6.4695C25.9688 8.0825 26.75 9.926 26.75 12V22.5H30.5V25.5H0.5ZM15.5 30C14.4688 30 13.5863 29.7065 12.8525 29.1195C12.1188 28.5325 11.7513 27.826 11.75 27H19.25C19.25 27.825 18.8831 28.5315 18.1494 29.1195C17.4156 29.7075 16.5325 30.001 15.5 30ZM13.625 16.5H17.375V9H13.625V16.5ZM15.5 21C16.0313 21 16.4769 20.856 16.8369 20.568C17.1969 20.28 17.3763 19.924 17.375 19.5C17.3738 19.076 17.1938 18.72 16.835 18.432C16.4763 18.144 16.0313 18 15.5 18C14.9688 18 14.5238 18.144 14.165 18.432C13.8063 18.72 13.6263 19.076 13.625 19.5C13.6238 19.924 13.8038 20.2805 14.165 20.5695C14.5263 20.8585 14.9713 21.002 15.5 21Z" fill="#252E49"/>
</svg>
