<svg width="24" height="32" viewBox="0 0 24 32" fill="none" xmlns="http://www.w3.org/2000/svg">
<path d="M12 14.2222C13.3562 14.2222 14.682 13.8052 15.8096 13.0238C16.9373 12.2424 17.8162 11.1318 18.3352 9.83242C18.8542 8.53303 18.99 7.10322 18.7254 5.7238C18.4608 4.34438 17.8077 3.07731 16.8487 2.0828C15.8897 1.08829 14.6679 0.411025 13.3378 0.136641C12.0076 -0.137743 10.6289 0.00308111 9.37589 0.541304C8.12291 1.07953 7.05197 1.99098 6.29849 3.16039C5.54502 4.32981 5.14286 5.70467 5.14286 7.11111C5.14286 8.9971 5.8653 10.8058 7.15127 12.1394C8.43723 13.473 10.1814 14.2222 12 14.2222ZM12 3.55556C12.6781 3.55556 13.341 3.76409 13.9048 4.15478C14.4686 4.54547 14.9081 5.10077 15.1676 5.75046C15.4271 6.40015 15.495 7.11506 15.3627 7.80477C15.2304 8.49448 14.9039 9.12802 14.4244 9.62527C13.9449 10.1225 13.334 10.4612 12.6689 10.5983C12.0038 10.7355 11.3144 10.6651 10.6879 10.396C10.0615 10.1269 9.52598 9.67118 9.14925 9.08647C8.77251 8.50177 8.57143 7.81434 8.57143 7.11111C8.57143 6.16812 8.93265 5.26375 9.57563 4.59696C10.2186 3.93016 11.0907 3.55556 12 3.55556ZM12 17.7778C8.8174 17.7778 5.76515 19.0889 3.51472 21.4227C1.26428 23.7565 0 26.9218 0 30.2222C0 30.6937 0.180612 31.1459 0.502103 31.4793C0.823594 31.8127 1.25963 32 1.71429 32C2.16894 32 2.60498 31.8127 2.92647 31.4793C3.24796 31.1459 3.42857 30.6937 3.42857 30.2222C3.42857 27.8647 4.33163 25.6038 5.93909 23.9368C7.54654 22.2698 9.72672 21.3333 12 21.3333C14.2733 21.3333 16.4535 22.2698 18.0609 23.9368C19.6684 25.6038 20.5714 27.8647 20.5714 30.2222C20.5714 30.6937 20.752 31.1459 21.0735 31.4793C21.395 31.8127 21.8311 32 22.2857 32C22.7404 32 23.1764 31.8127 23.4979 31.4793C23.8194 31.1459 24 30.6937 24 30.2222C24 26.9218 22.7357 23.7565 20.4853 21.4227C18.2348 19.0889 15.1826 17.7778 12 17.7778Z" fill="#202C4D"/>
</svg>
