<svg width="43" height="33" viewBox="0 0 43 33" fill="none" xmlns="http://www.w3.org/2000/svg">
<rect x="0.75" y="0.75" width="41.5" height="31.5" rx="15.75" fill="#ABCDFE" stroke="black" stroke-width="1.5"/>
<path d="M12.3822 6C12.1704 6 12 6.16496 12 6.37V27.63C12 27.835 12.1704 28 12.3822 28H30.6178C30.8296 28 31 27.835 31 27.63V13.3889L23.4623 6H12.3822ZM23.4623 7.26276L29.7117 13.3889H23.7687C23.6121 13.3889 23.4623 13.2716 23.4623 13.0864V7.26276ZM17.8687 8.72053C19.4005 8.72053 20.6506 9.9307 20.6506 11.4136C20.6506 12.0914 20.2478 12.6612 19.782 13.1539C20.5379 13.5377 21.1816 14.1122 21.5766 14.883C22.0374 15.7822 22.3008 16.8009 22.4306 17.6666C22.4646 17.8952 22.2816 18.1 22.0431 18.1004H13.7632C13.5246 18.1 13.3416 17.8952 13.3756 17.6666C13.5057 16.8054 13.7531 15.7855 14.1975 14.886C14.5777 14.1165 15.2118 13.5443 15.9638 13.1598C15.4935 12.667 15.087 12.0945 15.086 11.4136C15.086 9.9307 16.3368 8.72053 17.8687 8.72053ZM17.8687 9.48055C16.7607 9.48055 15.8711 10.3411 15.8711 11.4136C15.872 12.005 16.1528 12.5637 16.6324 12.93C16.8747 13.1173 16.8073 13.4897 16.5137 13.5862C15.8312 13.8098 15.2968 14.4181 14.9037 15.2138C14.5772 15.8745 14.4139 16.6356 14.2787 17.3411H21.5214C21.3834 16.6391 21.2123 15.8809 20.8735 15.2197C20.4652 14.4231 19.9122 13.8082 19.229 13.5832C18.9365 13.4853 18.8709 13.1133 19.1133 12.927C19.5902 12.5599 19.8655 12.0034 19.8655 11.4136C19.8655 10.3411 18.9766 9.48055 17.8687 9.48055ZM23.8377 15.1077H23.8438H28.6087C28.9009 15.1077 29.1495 15.3463 29.1495 15.629V17.0971C29.1495 17.3798 28.9008 17.6214 28.6087 17.6214H23.7274C23.4352 17.6214 23.1889 17.3798 23.1889 17.0971V15.6987C23.1889 15.5484 23.2544 15.3667 23.3919 15.2531C23.5294 15.1394 23.6937 15.1077 23.8377 15.1077ZM23.974 15.867V16.8621H28.3652V15.867H23.974ZM14.8462 19.3676H19.8601C20.1523 19.3676 20.3986 19.6084 20.3986 19.8911V21.36C20.3986 21.6426 20.1522 21.8812 19.8601 21.8812H14.736C14.4438 21.8812 14.1975 21.6431 14.1975 21.36V19.9615C14.1975 19.6171 14.4157 19.3972 14.8462 19.3676ZM22.4682 19.3676H28.6087C28.9009 19.3676 29.1495 19.6084 29.1495 19.8911V21.36C29.1495 21.6426 28.9008 21.8812 28.6087 21.8812H22.3586C22.0665 21.8812 21.8202 21.6427 21.8202 21.36V19.9615C21.8202 19.5547 21.9799 19.3676 22.4682 19.3676ZM14.9818 20.1269V21.1219H19.6142V20.1269H14.9818ZM22.6045 20.1269V21.1219H28.3652V20.1269H22.6045ZM14.8462 23.0691H19.8601C20.1523 23.0691 20.3986 23.3106 20.3986 23.5933V25.0622C20.3986 25.3449 20.1522 25.5835 19.8601 25.5835H14.736C14.4438 25.5835 14.1975 25.3454 14.1975 25.0622V23.6638C14.1975 23.3 14.4158 23.0993 14.8462 23.0691ZM23.313 23.0691H28.4548C28.7469 23.0691 28.9932 23.3106 28.9932 23.5933V25.0622C28.9932 25.3449 28.7469 25.5835 28.4548 25.5835H23.3337C23.0415 25.5835 22.7929 25.3454 22.7929 25.0622V23.6638C22.7929 23.2208 22.9949 23.0913 23.313 23.0691ZM14.9818 23.8291V24.8235H19.6142V23.8291H14.9818ZM23.5772 23.8291V24.8235H28.2089V23.8291H23.5772Z" fill="#252E49"/>
</svg>
