<svg width="23" height="22" viewBox="0 0 23 22" fill="none" xmlns="http://www.w3.org/2000/svg">
<path d="M22.6222 19.9036L18.2791 15.7616C19.6804 14.054 20.4407 11.9454 20.4379 9.77463C20.4379 7.84139 19.8385 5.95157 18.7157 4.34414C17.5928 2.73671 15.9968 1.48387 14.1295 0.744053C12.2623 0.00423516 10.2076 -0.189335 8.22532 0.187821C6.24304 0.564977 4.4222 1.49592 2.99306 2.86293C1.56392 4.22993 0.590658 5.9716 0.196358 7.8677C-0.197941 9.76379 0.00442767 11.7291 0.777874 13.5152C1.55132 15.3013 2.86111 16.8279 4.5416 17.9019C6.22209 18.976 8.19782 19.5493 10.2189 19.5493C12.4884 19.552 14.6928 18.8247 16.478 17.4844L20.8083 21.6386C20.927 21.7531 21.0683 21.844 21.224 21.906C21.3796 21.9681 21.5466 22 21.7152 22C21.8839 22 22.0508 21.9681 22.2065 21.906C22.3621 21.844 22.5034 21.7531 22.6222 21.6386C22.7419 21.525 22.8369 21.3899 22.9018 21.241C22.9666 21.0921 23 20.9324 23 20.7711C23 20.6098 22.9666 20.4501 22.9018 20.3012C22.8369 20.1523 22.7419 20.0172 22.6222 19.9036ZM2.55474 9.77463C2.55474 8.3247 3.00423 6.90733 3.84639 5.70176C4.68854 4.49619 5.88552 3.55656 7.28597 3.0017C8.68642 2.44683 10.2274 2.30166 11.7141 2.58452C13.2009 2.86739 14.5665 3.5656 15.6383 4.59085C16.7102 5.61611 17.4401 6.92236 17.7359 8.34443C18.0316 9.7665 17.8798 11.2405 17.2997 12.5801C16.7196 13.9196 15.7373 15.0646 14.4769 15.8701C13.2166 16.6756 11.7348 17.1056 10.2189 17.1056C8.18626 17.1056 6.23684 16.3332 4.79953 14.9584C3.36221 13.5836 2.55474 11.7189 2.55474 9.77463Z" fill="black"/>
</svg>
