<svg width="38" height="34" viewBox="0 0 38 34" fill="none" xmlns="http://www.w3.org/2000/svg">
<rect x="0.75" y="0.75" width="36.5" height="32.3547" rx="16.1774" fill="#F5C552" stroke="black" stroke-width="1.5"/>
<mask id="mask0_392_11" style="mask-type:luminance" maskUnits="userSpaceOnUse" x="9" y="6" width="19" height="22">
<path d="M9.5 6.771H27.7389V27.1986H9.5V6.771Z" fill="white"/>
</mask>
<g mask="url(#mask0_392_11)">
<path d="M19.8966 23.8151C19.8966 22.3729 20.3979 21.0168 21.3086 19.9967C22.2194 18.9767 23.4298 18.4153 24.7179 18.4153C25.7752 18.4153 26.7805 18.7944 27.6105 19.4941C27.6565 18.7411 27.6852 17.8987 27.6861 16.9555C27.6841 14.5835 27.5063 12.8467 27.3167 11.5703C26.9849 9.46726 25.2792 7.55693 23.4016 7.18533C22.2619 6.97272 20.7112 6.77359 18.5931 6.771C16.4752 6.77359 14.924 6.97272 13.7843 7.18507C11.9069 7.55667 10.2015 9.46675 9.86971 11.57C9.68011 12.8461 9.50254 14.5832 9.5 16.9553C9.50254 19.3271 9.68011 21.0644 9.86971 22.3408C10.2015 24.4438 11.9069 26.3542 13.7848 26.7258C14.9242 26.9381 16.4752 27.1367 18.5933 27.1396C19.4354 27.1385 20.1875 27.1064 20.8599 27.0549C20.2351 26.1252 19.8966 24.9995 19.8966 23.8151ZM14.1002 11.693H23.0862C23.6672 11.693 24.1387 12.2208 24.1387 12.8715C24.1387 13.5225 23.6672 14.0503 23.0862 14.0503H14.1002C13.5189 14.0503 13.0477 13.5225 13.0477 12.8715C13.0477 12.2208 13.5189 11.693 14.1002 11.693ZM14.1002 18.9726C13.5189 18.9726 13.0477 18.4448 13.0477 17.7938C13.0477 17.143 13.5189 16.6153 14.1002 16.6153H19.3753C19.9563 16.6153 20.4277 17.143 20.4277 17.7938C20.4277 18.4448 19.9563 18.9726 19.3753 18.9726H14.1002Z" fill="#252E49"/>
</g>
<mask id="mask1_392_11" style="mask-type:luminance" maskUnits="userSpaceOnUse" x="20" y="19" width="9" height="10">
<path d="M20.9321 19.575H28.5001V28.0512H20.9321V19.575Z" fill="white"/>
</mask>
<g mask="url(#mask1_392_11)">
<path d="M24.7179 19.5789C22.629 19.5789 20.9358 21.4752 20.9358 23.8149C20.9358 26.1546 22.629 28.0509 24.7179 28.0509C26.8069 28.0509 28.5001 26.1546 28.5001 23.8149C28.5001 21.4752 26.8069 19.5789 24.7179 19.5789ZM25.4231 25.9168C25.4231 26.3527 25.1073 26.7064 24.7179 26.7064C24.3286 26.7064 24.013 26.3527 24.013 25.9168V23.8333C24.013 23.3972 24.3286 23.0435 24.7179 23.0435C25.1073 23.0435 25.4231 23.3972 25.4231 23.8333V25.9168ZM25.394 22.1428C25.3681 22.3075 25.2345 22.4572 25.0876 22.4862C24.9984 22.5027 24.8768 22.518 24.711 22.5185C24.545 22.5185 24.4236 22.5027 24.3341 22.4862C24.1873 22.4572 24.0537 22.3075 24.0278 22.1428C24.013 22.0431 23.9991 21.9066 23.9989 21.721C23.9989 21.5353 24.013 21.3993 24.0278 21.2991C24.0537 21.1344 24.1873 20.985 24.3341 20.9557C24.4234 20.9392 24.545 20.9239 24.711 20.9234C24.8768 20.9234 24.9982 20.9392 25.0876 20.9557C25.2345 20.985 25.3681 21.1344 25.394 21.2991C25.409 21.3988 25.4227 21.5353 25.4231 21.721C25.4231 21.9066 25.409 22.0426 25.394 22.1428Z" fill="#252E49"/>
</g>
</svg>
