<svg width="71" height="71" viewBox="0 0 71 71" fill="none" xmlns="http://www.w3.org/2000/svg">
<path d="M63.1111 0H7.88889C3.55 0 0 3.55 0 7.88889V63.1111C0 67.45 3.55 71 7.88889 71H63.1111C67.45 71 71 67.45 71 63.1111V7.88889C71 3.55 67.45 0 63.1111 0ZM15.7778 15.7778H23.6667V23.6667H15.7778V15.7778ZM15.7778 31.5556H23.6667V39.4444H15.7778V31.5556ZM15.7778 47.3333H23.6667V55.2222H15.7778V47.3333ZM55.2222 55.2222H31.5556V47.3333H55.2222V55.2222ZM55.2222 39.4444H31.5556V31.5556H55.2222V39.4444ZM55.2222 23.6667H31.5556V15.7778H55.2222V23.6667Z" fill="#7994C4"/>
</svg>
