<svg width="33" height="39" viewBox="0 0 33 39" fill="none" xmlns="http://www.w3.org/2000/svg">
<path d="M16.5 17.3333C18.3648 17.3333 20.1877 16.825 21.7382 15.8727C23.2888 14.9204 24.4972 13.5669 25.2109 11.9833C25.9245 10.3996 26.1112 8.65706 25.7474 6.97589C25.3836 5.29472 24.4856 3.75047 23.167 2.53841C21.8484 1.32636 20.1684 0.500937 18.3394 0.166531C16.5105 -0.167874 14.6147 0.0037551 12.8918 0.659715C11.169 1.31567 9.69646 2.4265 8.66043 3.85173C7.62441 5.27695 7.07143 6.95257 7.07143 8.66667C7.07143 10.9652 8.06479 13.1696 9.83299 14.7949C11.6012 16.4202 13.9994 17.3333 16.5 17.3333ZM30.6429 39C31.268 39 31.8676 38.7717 32.3096 38.3654C32.7517 37.9591 33 37.408 33 36.8333C33 32.8109 31.2616 28.9532 28.1673 26.1089C25.0729 23.2646 20.8761 21.6667 16.5 21.6667C12.1239 21.6667 7.92709 23.2646 4.83274 26.1089C1.73839 28.9532 6.52086e-08 32.8109 0 36.8333C0 37.408 0.248342 37.9591 0.690392 38.3654C1.13244 38.7717 1.73199 39 2.35714 39H30.6429Z" fill="#252E49"/>
</svg>
